G04*
G04 #@! TF.GenerationSoftware,Altium Limited,Altium Designer,23.3.1 (30)*
G04*
G04 Layer_Color=8388736*
%FSLAX25Y25*%
%MOIN*%
G70*
G04*
G04 #@! TF.SameCoordinates,585462AD-BF79-4466-854D-63341AC199BE*
G04*
G04*
G04 #@! TF.FilePolarity,Negative*
G04*
G01*
G75*
G04:AMPARAMS|DCode=12|XSize=58.04mil|YSize=23.03mil|CornerRadius=11.51mil|HoleSize=0mil|Usage=FLASHONLY|Rotation=90.000|XOffset=0mil|YOffset=0mil|HoleType=Round|Shape=RoundedRectangle|*
%AMROUNDEDRECTD12*
21,1,0.05804,0.00000,0,0,90.0*
21,1,0.03501,0.02303,0,0,90.0*
1,1,0.02303,0.00000,0.01750*
1,1,0.02303,0.00000,-0.01750*
1,1,0.02303,0.00000,-0.01750*
1,1,0.02303,0.00000,0.01750*
%
%ADD12ROUNDEDRECTD12*%
%ADD13R,0.02303X0.05804*%
%ADD14R,0.02362X0.03150*%
%ADD17R,0.05524X0.06509*%
%ADD18R,0.06509X0.05524*%
%ADD19R,0.06181X0.06181*%
%ADD20C,0.05800*%
%ADD21C,0.16548*%
D12*
X429740Y242364D02*
D03*
X433480Y235000D02*
D03*
X384740Y264364D02*
D03*
X388480Y257000D02*
D03*
D13*
X426000Y235000D02*
D03*
X381000Y257000D02*
D03*
D14*
X406000Y244976D02*
D03*
X409740Y237024D02*
D03*
X402260D02*
D03*
X364740Y288953D02*
D03*
X368480Y281000D02*
D03*
X361000D02*
D03*
X316000Y269976D02*
D03*
X319740Y262024D02*
D03*
X312260D02*
D03*
X361000Y217976D02*
D03*
X364740Y210024D02*
D03*
X357260D02*
D03*
X321000Y250976D02*
D03*
X324740Y243024D02*
D03*
X317260D02*
D03*
X337000Y238976D02*
D03*
X340740Y231024D02*
D03*
X333260D02*
D03*
X430260Y327953D02*
D03*
X434000Y320000D02*
D03*
X426520D02*
D03*
X388260Y327953D02*
D03*
X392000Y320000D02*
D03*
X384520D02*
D03*
X342000Y314976D02*
D03*
X345740Y307024D02*
D03*
X338260D02*
D03*
X283740Y327953D02*
D03*
X287480Y320000D02*
D03*
X280000D02*
D03*
X283000Y300000D02*
D03*
X286740Y292047D02*
D03*
X279260D02*
D03*
X312740Y307953D02*
D03*
X316480Y300000D02*
D03*
X309000D02*
D03*
X302260Y238953D02*
D03*
X306000Y231000D02*
D03*
X298520D02*
D03*
D17*
X402063Y220000D02*
D03*
X409937D02*
D03*
X386937Y228000D02*
D03*
X379063D02*
D03*
X404000Y280000D02*
D03*
X411874D02*
D03*
D18*
X345000Y289937D02*
D03*
Y282063D02*
D03*
X316000Y289874D02*
D03*
Y282000D02*
D03*
X356000Y265874D02*
D03*
Y258000D02*
D03*
X361000Y239874D02*
D03*
Y232000D02*
D03*
X411000Y327874D02*
D03*
Y320000D02*
D03*
X366000Y327874D02*
D03*
Y320000D02*
D03*
X326000Y316937D02*
D03*
Y309063D02*
D03*
X268000Y326937D02*
D03*
Y319063D02*
D03*
X297000Y317937D02*
D03*
Y310063D02*
D03*
X430000Y219937D02*
D03*
Y212063D02*
D03*
X391000Y299937D02*
D03*
Y292063D02*
D03*
X341000Y207063D02*
D03*
Y214937D02*
D03*
D19*
X450000Y220000D02*
D03*
Y260000D02*
D03*
Y290000D02*
D03*
Y330000D02*
D03*
X310000Y350000D02*
D03*
X350000D02*
D03*
X270000Y270000D02*
D03*
Y220000D02*
D03*
D20*
X440000Y280000D02*
D03*
X299000Y253000D02*
D03*
X440000Y230000D02*
D03*
X411000Y257000D02*
D03*
Y312000D02*
D03*
X350000Y315000D02*
D03*
X299000Y299000D02*
D03*
X305000Y284000D02*
D03*
X329000Y262000D02*
D03*
X328000Y298000D02*
D03*
X399000Y255000D02*
D03*
X391000Y272000D02*
D03*
D21*
X260000Y200000D02*
D03*
X460000D02*
D03*
Y360000D02*
D03*
X260000D02*
D03*
M02*
