G04*
G04 #@! TF.GenerationSoftware,Altium Limited,Altium Designer,23.3.1 (30)*
G04*
G04 Layer_Color=32768*
%FSLAX25Y25*%
%MOIN*%
G70*
G04*
G04 #@! TF.SameCoordinates,585462AD-BF79-4466-854D-63341AC199BE*
G04*
G04*
G04 #@! TF.FilePolarity,Positive*
G04*
G01*
G75*
%ADD10C,0.00787*%
%ADD25C,0.00394*%
%ADD26C,0.00197*%
D10*
X443858Y214350D02*
Y225650D01*
Y214350D02*
X456142D01*
Y225650D01*
X443858D02*
X456142D01*
X423008Y231114D02*
X436472D01*
Y246250D01*
X423008D02*
X436472D01*
X423008Y231114D02*
Y246250D01*
X399701Y235055D02*
X412299D01*
Y246945D01*
X399701D02*
X412299D01*
X399701Y235055D02*
Y246945D01*
X378008Y253114D02*
X391472D01*
Y268250D01*
X378008D02*
X391472D01*
X378008Y253114D02*
Y268250D01*
X358441Y279031D02*
X371039D01*
Y290921D01*
X358441D02*
X371039D01*
X358441Y279031D02*
Y290921D01*
X309701Y260055D02*
X322299D01*
Y271945D01*
X309701D02*
X322299D01*
X309701Y260055D02*
Y271945D01*
X354701Y208055D02*
X367299D01*
Y219945D01*
X354701D02*
X367299D01*
X354701Y208055D02*
Y219945D01*
X314701Y241055D02*
X327299D01*
Y252945D01*
X314701D02*
X327299D01*
X314701Y241055D02*
Y252945D01*
X330701Y229055D02*
X343299D01*
Y240945D01*
X330701D02*
X343299D01*
X330701Y229055D02*
Y240945D01*
X443858Y254350D02*
Y265650D01*
Y254350D02*
X456142D01*
Y265650D01*
X443858D02*
X456142D01*
X443858Y284350D02*
Y295650D01*
Y284350D02*
X456142D01*
Y295650D01*
X443858D02*
X456142D01*
X443858Y324350D02*
Y335650D01*
Y324350D02*
X456142D01*
Y335650D01*
X443858D02*
X456142D01*
X423961Y318032D02*
X436559D01*
Y329921D01*
X423961D02*
X436559D01*
X423961Y318032D02*
Y329921D01*
X381961Y318032D02*
X394559D01*
Y329921D01*
X381961D02*
X394559D01*
X381961Y318032D02*
Y329921D01*
X303858Y344350D02*
Y355650D01*
Y344350D02*
X316142D01*
Y355650D01*
X303858D02*
X316142D01*
X343858Y344350D02*
Y355650D01*
Y344350D02*
X356142D01*
Y355650D01*
X343858D02*
X356142D01*
X335701Y305055D02*
X348299D01*
Y316945D01*
X335701D02*
X348299D01*
X335701Y305055D02*
Y316945D01*
X277441Y318032D02*
X290039D01*
Y329921D01*
X277441D02*
X290039D01*
X277441Y318032D02*
Y329921D01*
X276701Y290079D02*
X289299D01*
Y301969D01*
X276701D02*
X289299D01*
X276701Y290079D02*
Y301969D01*
X306441Y298031D02*
X319039D01*
Y309921D01*
X306441D02*
X319039D01*
X306441Y298031D02*
Y309921D01*
X263858Y264350D02*
Y275650D01*
Y264350D02*
X276142D01*
Y275650D01*
X263858D02*
X276142D01*
X263858Y214350D02*
Y225650D01*
Y214350D02*
X276142D01*
Y225650D01*
X263858D02*
X276142D01*
X295961Y229031D02*
X308559D01*
Y240921D01*
X295961D02*
X308559D01*
X295961Y229031D02*
Y240921D01*
D25*
X406000Y218032D02*
Y221969D01*
X404032Y220000D02*
X407969D01*
X343032Y286000D02*
X346969D01*
X345000Y284032D02*
Y287968D01*
X314032Y285937D02*
X317969D01*
X316000Y283968D02*
Y287906D01*
X354031Y261937D02*
X357968D01*
X356000Y259968D02*
Y263906D01*
X383000Y226031D02*
Y229969D01*
X381031Y228000D02*
X384968D01*
X359032Y235937D02*
X362968D01*
X361000Y233968D02*
Y237906D01*
X407937Y278031D02*
Y281968D01*
X405969Y280000D02*
X409905D01*
X409031Y323937D02*
X412968D01*
X411000Y321969D02*
Y325905D01*
X364032Y323937D02*
X367969D01*
X366000Y321969D02*
Y325905D01*
X324031Y313000D02*
X327969D01*
X326000Y311032D02*
Y314968D01*
X266032Y323000D02*
X269969D01*
X268000Y321031D02*
Y324969D01*
X295031Y314000D02*
X298969D01*
X297000Y312032D02*
Y315968D01*
X428031Y216000D02*
X431968D01*
X430000Y214032D02*
Y217969D01*
X389032Y296000D02*
X392969D01*
X391000Y294032D02*
Y297969D01*
X339032Y211000D02*
X342969D01*
X341000Y209032D02*
Y212968D01*
D26*
X397732Y224921D02*
X414268D01*
X397732Y215079D02*
X414268D01*
X397732D02*
Y224921D01*
X414268Y215079D02*
Y224921D01*
X349921Y277732D02*
Y294268D01*
X340079Y277732D02*
Y294268D01*
X349921D01*
X340079Y277732D02*
X349921D01*
X320921Y277669D02*
Y294205D01*
X311079Y277669D02*
Y294205D01*
X320921D01*
X311079Y277669D02*
X320921D01*
X360921Y253669D02*
Y270205D01*
X351079Y253669D02*
Y270205D01*
X360921D01*
X351079Y253669D02*
X360921D01*
X374732Y223079D02*
X391268D01*
X374732Y232921D02*
X391268D01*
Y223079D02*
Y232921D01*
X374732Y223079D02*
Y232921D01*
X365921Y227669D02*
Y244205D01*
X356079Y227669D02*
Y244205D01*
X365921D01*
X356079Y227669D02*
X365921D01*
X399669Y284921D02*
X416205D01*
X399669Y275079D02*
X416205D01*
X399669D02*
Y284921D01*
X416205Y275079D02*
Y284921D01*
X415921Y315669D02*
Y332205D01*
X406079Y315669D02*
Y332205D01*
X415921D01*
X406079Y315669D02*
X415921D01*
X370921D02*
Y332205D01*
X361079Y315669D02*
Y332205D01*
X370921D01*
X361079Y315669D02*
X370921D01*
X330921Y304732D02*
Y321268D01*
X321079Y304732D02*
Y321268D01*
X330921D01*
X321079Y304732D02*
X330921D01*
X272921Y314732D02*
Y331268D01*
X263079Y314732D02*
Y331268D01*
X272921D01*
X263079Y314732D02*
X272921D01*
X301921Y305732D02*
Y322268D01*
X292079Y305732D02*
Y322268D01*
X301921D01*
X292079Y305732D02*
X301921D01*
X434921Y207732D02*
Y224268D01*
X425079Y207732D02*
Y224268D01*
X434921D01*
X425079Y207732D02*
X434921D01*
X395921Y287732D02*
Y304268D01*
X386079Y287732D02*
Y304268D01*
X395921D01*
X386079Y287732D02*
X395921D01*
X336079Y202732D02*
Y219268D01*
X345921Y202732D02*
Y219268D01*
X336079Y202732D02*
X345921D01*
X336079Y219268D02*
X345921D01*
M02*
