G04*
G04 #@! TF.GenerationSoftware,Altium Limited,Altium Designer,23.3.1 (30)*
G04*
G04 Layer_Color=2752767*
%FSLAX25Y25*%
%MOIN*%
G70*
G04*
G04 #@! TF.SameCoordinates,585462AD-BF79-4466-854D-63341AC199BE*
G04*
G04*
G04 #@! TF.FilePolarity,Positive*
G04*
G01*
G75*
%ADD27C,0.00500*%
%ADD28C,0.00667*%
D27*
X448000Y218000D02*
Y222000D01*
X452000D01*
Y218000D01*
X448000D01*
Y258000D02*
Y262000D01*
X452000D01*
Y258000D01*
X448000D01*
Y288000D02*
Y292000D01*
X452000D01*
Y288000D01*
X448000D01*
Y328000D02*
Y332000D01*
X452000D01*
Y328000D01*
X448000D01*
X308000Y348000D02*
Y352000D01*
X312000D01*
Y348000D01*
X308000D01*
X348000D02*
Y352000D01*
X352000D01*
Y348000D01*
X348000D01*
X268000Y268000D02*
Y272000D01*
X272000D01*
Y268000D01*
X268000D01*
Y218000D02*
Y222000D01*
X272000D01*
Y218000D01*
X268000D01*
X260000Y198000D02*
X258000Y202000D01*
X262000D01*
X260000Y198000D01*
X460000D02*
X458000Y202000D01*
X462000D01*
X460000Y198000D01*
Y358000D02*
X458000Y362000D01*
X462000D01*
X460000Y358000D01*
X260000D02*
X258000Y362000D01*
X262000D01*
X260000Y358000D01*
D28*
X442000Y280000D02*
G03*
X442000Y280000I-2000J0D01*
G01*
X301000Y253000D02*
G03*
X301000Y253000I-2000J0D01*
G01*
X442000Y230000D02*
G03*
X442000Y230000I-2000J0D01*
G01*
X413000Y257000D02*
G03*
X413000Y257000I-2000J0D01*
G01*
Y312000D02*
G03*
X413000Y312000I-2000J0D01*
G01*
X352000Y315000D02*
G03*
X352000Y315000I-2000J0D01*
G01*
X301000Y299000D02*
G03*
X301000Y299000I-2000J0D01*
G01*
X307000Y284000D02*
G03*
X307000Y284000I-2000J0D01*
G01*
X331000Y262000D02*
G03*
X331000Y262000I-2000J0D01*
G01*
X330000Y298000D02*
G03*
X330000Y298000I-2000J0D01*
G01*
X401000Y255000D02*
G03*
X401000Y255000I-2000J0D01*
G01*
X393000Y272000D02*
G03*
X393000Y272000I-2000J0D01*
G01*
M02*
