G04*
G04 #@! TF.GenerationSoftware,Altium Limited,Altium Designer,23.3.1 (30)*
G04*
G04 Layer_Color=0*
%FSLAX25Y25*%
%MOIN*%
G70*
G04*
G04 #@! TF.SameCoordinates,585462AD-BF79-4466-854D-63341AC199BE*
G04*
G04*
G04 #@! TF.FilePolarity,Positive*
G04*
G01*
G75*
%ADD25C,0.00394*%
D25*
X450000Y218032D02*
Y221969D01*
X448032Y220000D02*
X451968D01*
X427772Y238682D02*
X431709D01*
X429740Y236714D02*
Y240651D01*
X404032Y241000D02*
X407969D01*
X406000Y239032D02*
Y242969D01*
X382772Y260682D02*
X386709D01*
X384740Y258714D02*
Y262651D01*
X362772Y284976D02*
X366709D01*
X364740Y283008D02*
Y286945D01*
X314032Y266000D02*
X317969D01*
X316000Y264032D02*
Y267969D01*
X359032Y214000D02*
X362968D01*
X361000Y212032D02*
Y215968D01*
X319032Y247000D02*
X322969D01*
X321000Y245031D02*
Y248969D01*
X335032Y235000D02*
X338968D01*
X337000Y233032D02*
Y236968D01*
X450000Y258032D02*
Y261968D01*
X448032Y260000D02*
X451968D01*
X450000Y288032D02*
Y291968D01*
X448032Y290000D02*
X451968D01*
X450000Y328031D02*
Y331968D01*
X448032Y330000D02*
X451968D01*
X428291Y323976D02*
X432228D01*
X430260Y322008D02*
Y325945D01*
X386291Y323976D02*
X390228D01*
X388260Y322008D02*
Y325945D01*
X310000Y348031D02*
Y351969D01*
X308032Y350000D02*
X311968D01*
X350000Y348031D02*
Y351969D01*
X348031Y350000D02*
X351969D01*
X340032Y311000D02*
X343969D01*
X342000Y309032D02*
Y312968D01*
X281772Y323976D02*
X285709D01*
X283740Y322008D02*
Y325945D01*
X281031Y296024D02*
X284968D01*
X283000Y294055D02*
Y297992D01*
X310772Y303976D02*
X314709D01*
X312740Y302008D02*
Y305945D01*
X270000Y268032D02*
Y271969D01*
X268032Y270000D02*
X271969D01*
X270000Y218032D02*
Y221969D01*
X268032Y220000D02*
X271969D01*
X300291Y234976D02*
X304228D01*
X302260Y233008D02*
Y236945D01*
M02*
