G04*
G04 #@! TF.GenerationSoftware,Altium Limited,Altium Designer,23.3.1 (30)*
G04*
G04 Layer_Physical_Order=2*
G04 Layer_Color=16711680*
%FSLAX25Y25*%
%MOIN*%
G70*
G04*
G04 #@! TF.SameCoordinates,585462AD-BF79-4466-854D-63341AC199BE*
G04*
G04*
G04 #@! TF.FilePolarity,Positive*
G04*
G01*
G75*
%ADD19R,0.06181X0.06181*%
%ADD22C,0.03000*%
%ADD23C,0.05000*%
%ADD24C,0.15748*%
D19*
X450000Y220000D02*
D03*
Y260000D02*
D03*
Y290000D02*
D03*
Y330000D02*
D03*
X310000Y350000D02*
D03*
X350000D02*
D03*
X270000Y270000D02*
D03*
Y220000D02*
D03*
D22*
X440000Y230000D02*
Y280000D01*
X299000Y253000D02*
Y299000D01*
X411000Y257000D02*
Y312000D01*
X350000Y315000D02*
Y350000D01*
X328000Y298000D02*
Y332000D01*
X310000Y350000D02*
X328000Y332000D01*
X305000Y284000D02*
X314000D01*
X329000Y262000D02*
Y269000D01*
X314000Y284000D02*
X329000Y269000D01*
X314000Y284000D02*
X328000Y298000D01*
X399000Y255000D02*
Y268000D01*
X395000Y272000D02*
X399000Y268000D01*
X391000Y272000D02*
X395000D01*
D23*
X440000Y280000D02*
D03*
X299000Y253000D02*
D03*
X440000Y230000D02*
D03*
X411000Y257000D02*
D03*
Y312000D02*
D03*
X350000Y315000D02*
D03*
X299000Y299000D02*
D03*
X305000Y284000D02*
D03*
X329000Y262000D02*
D03*
X328000Y298000D02*
D03*
X399000Y255000D02*
D03*
X391000Y272000D02*
D03*
D24*
X260000Y200000D02*
D03*
X460000D02*
D03*
Y360000D02*
D03*
X260000D02*
D03*
M02*
