G04*
G04 #@! TF.GenerationSoftware,Altium Limited,Altium Designer,23.3.1 (30)*
G04*
G04 Layer_Color=65535*
%FSLAX25Y25*%
%MOIN*%
G70*
G04*
G04 #@! TF.SameCoordinates,585462AD-BF79-4466-854D-63341AC199BE*
G04*
G04*
G04 #@! TF.FilePolarity,Positive*
G04*
G01*
G75*
%ADD10C,0.00787*%
%ADD11C,0.01000*%
G36*
X312237Y218770D02*
X312326D01*
Y218741D01*
X312385D01*
Y218711D01*
X312444D01*
Y218682D01*
X312474D01*
Y218652D01*
X312533D01*
Y218622D01*
X312563D01*
Y218593D01*
X312593D01*
Y218533D01*
X312622D01*
Y218504D01*
X312652D01*
Y218444D01*
X312682D01*
Y218385D01*
X312711D01*
Y218326D01*
X312741D01*
Y217111D01*
Y217081D01*
Y216311D01*
X312711D01*
Y216222D01*
X312682D01*
Y216163D01*
X312652D01*
Y216133D01*
X312622D01*
Y216074D01*
X312593D01*
Y216044D01*
X312563D01*
Y216015D01*
X312533D01*
Y215985D01*
X312504D01*
Y215956D01*
X312444D01*
Y215926D01*
X312415D01*
Y215896D01*
X312355D01*
Y215867D01*
X312267D01*
Y215837D01*
X312119D01*
Y215807D01*
X312030D01*
Y215837D01*
X311852D01*
Y215867D01*
X311793D01*
Y215896D01*
X311733D01*
Y215926D01*
X311674D01*
Y215956D01*
X311644D01*
Y215985D01*
X311615D01*
Y216015D01*
X311585D01*
Y216044D01*
X311556D01*
Y216074D01*
X311526D01*
Y216104D01*
X311496D01*
Y216133D01*
X311467D01*
Y216193D01*
X311437D01*
Y216282D01*
X311407D01*
Y216370D01*
X311378D01*
Y218267D01*
X311407D01*
Y218356D01*
X311437D01*
Y218415D01*
X311467D01*
Y218474D01*
X311496D01*
Y218533D01*
X311526D01*
Y218563D01*
X311556D01*
Y218593D01*
X311585D01*
Y218622D01*
X311615D01*
Y218652D01*
X311644D01*
Y218682D01*
X311674D01*
Y218711D01*
X311733D01*
Y218741D01*
X311793D01*
Y218770D01*
X311881D01*
Y218800D01*
X312237D01*
Y218770D01*
D02*
G37*
G36*
X308889D02*
X309007D01*
Y218741D01*
X309067D01*
Y218711D01*
X309096D01*
Y218682D01*
X309156D01*
Y218652D01*
X309185D01*
Y218622D01*
X309215D01*
Y218593D01*
X309244D01*
Y218563D01*
X309274D01*
Y218533D01*
X309304D01*
Y218474D01*
X309333D01*
Y218415D01*
X309363D01*
Y218356D01*
X309393D01*
Y218237D01*
X309422D01*
Y216400D01*
X309393D01*
Y216282D01*
X309363D01*
Y216193D01*
X309333D01*
Y216163D01*
X309304D01*
Y216104D01*
X309274D01*
Y216074D01*
X309244D01*
Y216044D01*
X309215D01*
Y216015D01*
X309185D01*
Y215985D01*
X309156D01*
Y215956D01*
X309126D01*
Y215926D01*
X309067D01*
Y215896D01*
X309007D01*
Y215867D01*
X308918D01*
Y215837D01*
X308770D01*
Y215807D01*
X308711D01*
Y215837D01*
X308533D01*
Y215867D01*
X308444D01*
Y215896D01*
X308385D01*
Y215926D01*
X308355D01*
Y215956D01*
X308296D01*
Y215985D01*
X308267D01*
Y216015D01*
X308237D01*
Y216044D01*
X308207D01*
Y216074D01*
X308178D01*
Y216133D01*
X308148D01*
Y216163D01*
X308119D01*
Y216222D01*
X308089D01*
Y216311D01*
X308059D01*
Y216518D01*
X308030D01*
Y218000D01*
X308059D01*
Y218030D01*
X308030D01*
Y218119D01*
X308059D01*
Y218326D01*
X308089D01*
Y218385D01*
X308119D01*
Y218474D01*
X308148D01*
Y218504D01*
X308178D01*
Y218533D01*
X308207D01*
Y218593D01*
X308237D01*
Y218622D01*
X308267D01*
Y218652D01*
X308326D01*
Y218682D01*
X308355D01*
Y218711D01*
X308415D01*
Y218741D01*
X308474D01*
Y218770D01*
X308563D01*
Y218800D01*
X308889D01*
Y218770D01*
D02*
G37*
G36*
X305600D02*
X305718D01*
Y218741D01*
X305778D01*
Y218711D01*
X305807D01*
Y218682D01*
X305867D01*
Y218652D01*
X305896D01*
Y218622D01*
X305926D01*
Y218593D01*
X305956D01*
Y218563D01*
X305985D01*
Y218533D01*
X306015D01*
Y218474D01*
X306044D01*
Y218415D01*
X306074D01*
Y218326D01*
X306104D01*
Y218237D01*
X306133D01*
Y216400D01*
X306104D01*
Y216282D01*
X306074D01*
Y216222D01*
X306044D01*
Y216163D01*
X306015D01*
Y216104D01*
X305985D01*
Y216074D01*
X305956D01*
Y216044D01*
X305926D01*
Y216015D01*
X305896D01*
Y215985D01*
X305867D01*
Y215956D01*
X305837D01*
Y215926D01*
X305778D01*
Y215896D01*
X305718D01*
Y215867D01*
X305630D01*
Y215837D01*
X305482D01*
Y215807D01*
X305422D01*
Y215837D01*
X305244D01*
Y215867D01*
X305155D01*
Y215896D01*
X305096D01*
Y215926D01*
X305037D01*
Y215956D01*
X305007D01*
Y215985D01*
X304978D01*
Y216015D01*
X304948D01*
Y216044D01*
X304919D01*
Y216074D01*
X304889D01*
Y216104D01*
X304859D01*
Y216163D01*
X304830D01*
Y216222D01*
X304800D01*
Y216282D01*
X304770D01*
Y216430D01*
X304741D01*
Y216726D01*
Y216756D01*
Y218207D01*
X304770D01*
Y218326D01*
X304800D01*
Y218415D01*
X304830D01*
Y218474D01*
X304859D01*
Y218504D01*
X304889D01*
Y218563D01*
X304919D01*
Y218593D01*
X304948D01*
Y218622D01*
X304978D01*
Y218652D01*
X305007D01*
Y218682D01*
X305067D01*
Y218711D01*
X305126D01*
Y218741D01*
X305185D01*
Y218770D01*
X305244D01*
Y218800D01*
X305600D01*
Y218770D01*
D02*
G37*
G36*
X302311D02*
X302370D01*
Y218741D01*
X302459D01*
Y218711D01*
X302489D01*
Y218682D01*
X302548D01*
Y218652D01*
X302578D01*
Y218622D01*
X302607D01*
Y218593D01*
X302637D01*
Y218563D01*
X302667D01*
Y218504D01*
X302696D01*
Y218444D01*
X302726D01*
Y218385D01*
X302755D01*
Y218326D01*
X302785D01*
Y216311D01*
X302755D01*
Y216222D01*
X302726D01*
Y216163D01*
X302696D01*
Y216133D01*
X302667D01*
Y216074D01*
X302637D01*
Y216044D01*
X302607D01*
Y216015D01*
X302578D01*
Y215985D01*
X302548D01*
Y215956D01*
X302519D01*
Y215926D01*
X302459D01*
Y215896D01*
X302400D01*
Y215867D01*
X302341D01*
Y215837D01*
X302193D01*
Y215807D01*
X302015D01*
Y215837D01*
X301896D01*
Y215867D01*
X301807D01*
Y215896D01*
X301748D01*
Y215926D01*
X301689D01*
Y215956D01*
X301659D01*
Y215985D01*
X301630D01*
Y216015D01*
X301600D01*
Y216044D01*
X301570D01*
Y216074D01*
X301541D01*
Y216133D01*
X301511D01*
Y216163D01*
X301482D01*
Y216222D01*
X301452D01*
Y216311D01*
X301422D01*
Y218296D01*
X301452D01*
Y218385D01*
X301482D01*
Y218474D01*
X301511D01*
Y218504D01*
X301541D01*
Y218563D01*
X301570D01*
Y218593D01*
X301600D01*
Y218622D01*
X301630D01*
Y218652D01*
X301689D01*
Y218682D01*
X301718D01*
Y218711D01*
X301748D01*
Y218741D01*
X301807D01*
Y218770D01*
X301896D01*
Y218800D01*
X302311D01*
Y218770D01*
D02*
G37*
G36*
X299022D02*
X299111D01*
Y218741D01*
X299170D01*
Y218711D01*
X299230D01*
Y218682D01*
X299259D01*
Y218652D01*
X299319D01*
Y218622D01*
X299348D01*
Y218593D01*
X299378D01*
Y218533D01*
X299407D01*
Y218504D01*
X299437D01*
Y218444D01*
X299467D01*
Y218385D01*
X299496D01*
Y218296D01*
X299526D01*
Y216341D01*
X299496D01*
Y216222D01*
X299467D01*
Y216193D01*
X299437D01*
Y216133D01*
X299407D01*
Y216074D01*
X299378D01*
Y216044D01*
X299348D01*
Y216015D01*
X299319D01*
Y215985D01*
X299289D01*
Y215956D01*
X299230D01*
Y215926D01*
X299200D01*
Y215896D01*
X299141D01*
Y215867D01*
X299052D01*
Y215837D01*
X298933D01*
Y215807D01*
X298756D01*
Y215837D01*
X298637D01*
Y215867D01*
X298548D01*
Y215896D01*
X298489D01*
Y215926D01*
X298459D01*
Y215956D01*
X298400D01*
Y215985D01*
X298370D01*
Y216015D01*
X298341D01*
Y216044D01*
X298311D01*
Y216104D01*
X298282D01*
Y216133D01*
X298252D01*
Y216193D01*
X298222D01*
Y216252D01*
X298193D01*
Y216341D01*
X298163D01*
Y218296D01*
X298193D01*
Y218326D01*
Y218356D01*
Y218385D01*
X298222D01*
Y218444D01*
X298252D01*
Y218504D01*
X298282D01*
Y218533D01*
X298311D01*
Y218563D01*
X298341D01*
Y218593D01*
X298370D01*
Y218652D01*
X298430D01*
Y218682D01*
X298459D01*
Y218711D01*
X298518D01*
Y218741D01*
X298578D01*
Y218770D01*
X298667D01*
Y218800D01*
X299022D01*
Y218770D01*
D02*
G37*
G36*
X295704D02*
X295793D01*
Y218741D01*
X295852D01*
Y218711D01*
X295911D01*
Y218682D01*
X295941D01*
Y218652D01*
X295970D01*
Y218622D01*
X296000D01*
Y218593D01*
X296030D01*
Y218563D01*
X296059D01*
Y218533D01*
X296089D01*
Y218474D01*
X296118D01*
Y218444D01*
X296148D01*
Y218356D01*
X296178D01*
Y218237D01*
X296207D01*
Y216370D01*
X296178D01*
Y216282D01*
X296148D01*
Y216193D01*
X296118D01*
Y216133D01*
X296089D01*
Y216104D01*
X296059D01*
Y216044D01*
X296030D01*
Y216015D01*
X296000D01*
Y215985D01*
X295941D01*
Y215956D01*
X295911D01*
Y215926D01*
X295852D01*
Y215896D01*
X295822D01*
Y215867D01*
X295733D01*
Y215837D01*
X295615D01*
Y215807D01*
X295407D01*
Y215837D01*
X295289D01*
Y215867D01*
X295200D01*
Y215896D01*
X295141D01*
Y215926D01*
X295111D01*
Y215956D01*
X295081D01*
Y215985D01*
X295022D01*
Y216015D01*
X294993D01*
Y216044D01*
X294963D01*
Y216104D01*
X294933D01*
Y216133D01*
X294904D01*
Y216193D01*
X294874D01*
Y216252D01*
X294844D01*
Y216370D01*
X294815D01*
Y218267D01*
X294844D01*
Y218356D01*
X294874D01*
Y218415D01*
Y218444D01*
X294904D01*
Y218474D01*
X294933D01*
Y218533D01*
X294963D01*
Y218563D01*
X294993D01*
Y218593D01*
X295022D01*
Y218622D01*
X295052D01*
Y218652D01*
X295081D01*
Y218682D01*
X295111D01*
Y218711D01*
X295170D01*
Y218741D01*
X295230D01*
Y218770D01*
X295319D01*
Y218800D01*
X295704D01*
Y218770D01*
D02*
G37*
G36*
X290815Y214415D02*
X290904D01*
Y214385D01*
X290963D01*
Y214356D01*
X290993D01*
Y214326D01*
X291052D01*
Y214296D01*
X291082D01*
Y214267D01*
X291111D01*
Y214237D01*
X291141D01*
Y214207D01*
X291170D01*
Y214148D01*
X291200D01*
Y214119D01*
X291230D01*
Y214059D01*
X291259D01*
Y213970D01*
X291289D01*
Y213822D01*
X291318D01*
Y213704D01*
X291289D01*
Y213556D01*
X291259D01*
Y213467D01*
X291230D01*
Y213437D01*
X291200D01*
Y213378D01*
X291170D01*
Y213348D01*
X291141D01*
Y213289D01*
X291111D01*
Y213259D01*
X291082D01*
Y213230D01*
X291022D01*
Y213200D01*
X290993D01*
Y213170D01*
X290933D01*
Y213141D01*
X290874D01*
Y213111D01*
X290785D01*
Y213082D01*
X288830D01*
Y213111D01*
X288741D01*
Y213141D01*
X288682D01*
Y213170D01*
X288622D01*
Y213200D01*
X288593D01*
Y213230D01*
X288563D01*
Y213259D01*
X288533D01*
Y213289D01*
X288504D01*
Y213318D01*
X288474D01*
Y213348D01*
X288444D01*
Y213378D01*
X288415D01*
Y213437D01*
X288385D01*
Y213496D01*
X288355D01*
Y213585D01*
X288326D01*
Y213970D01*
X288355D01*
Y214030D01*
X288385D01*
Y214089D01*
X288415D01*
Y214148D01*
X288444D01*
Y214207D01*
X288474D01*
Y214237D01*
X288504D01*
Y214267D01*
X288533D01*
Y214296D01*
X288593D01*
Y214326D01*
X288622D01*
Y214356D01*
X288682D01*
Y214385D01*
X288741D01*
Y214415D01*
X288800D01*
Y214444D01*
X290815D01*
Y214415D01*
D02*
G37*
G36*
X318993Y214296D02*
X319111D01*
Y214267D01*
X319170D01*
Y214237D01*
X319230D01*
Y214207D01*
X319289D01*
Y214178D01*
X319319D01*
Y214148D01*
X319348D01*
Y214119D01*
X319378D01*
Y214089D01*
X319407D01*
Y214059D01*
X319437D01*
Y214000D01*
X319467D01*
Y213970D01*
X319496D01*
Y213911D01*
X319526D01*
Y213793D01*
X319555D01*
Y213467D01*
X319526D01*
Y213378D01*
X319496D01*
Y213318D01*
X319467D01*
Y213259D01*
X319437D01*
Y213230D01*
X319407D01*
Y213170D01*
X319378D01*
Y213141D01*
X319348D01*
Y213111D01*
X319319D01*
Y213082D01*
X319259D01*
Y213052D01*
X319230D01*
Y213022D01*
X319170D01*
Y212993D01*
X319081D01*
Y212963D01*
X318933D01*
Y212933D01*
X317215D01*
Y212963D01*
X317067D01*
Y212993D01*
X316978D01*
Y213022D01*
X316918D01*
Y213052D01*
X316859D01*
Y213082D01*
X316830D01*
Y213111D01*
X316800D01*
Y213141D01*
X316770D01*
Y213170D01*
X316741D01*
Y213200D01*
X316711D01*
Y213259D01*
X316682D01*
Y213289D01*
X316652D01*
Y213348D01*
X316622D01*
Y213437D01*
X316593D01*
Y213585D01*
X316563D01*
Y213674D01*
X316593D01*
Y213822D01*
X316622D01*
Y213911D01*
X316652D01*
Y213970D01*
X316682D01*
Y214030D01*
X316711D01*
Y214059D01*
X316741D01*
Y214089D01*
X316770D01*
Y214119D01*
X316800D01*
Y214148D01*
X316830D01*
Y214178D01*
X316859D01*
Y214207D01*
X316918D01*
Y214237D01*
X316978D01*
Y214267D01*
X317037D01*
Y214296D01*
X317156D01*
Y214326D01*
X318993D01*
Y214296D01*
D02*
G37*
G36*
X290726Y211096D02*
X290844D01*
Y211067D01*
X290904D01*
Y211037D01*
X290963D01*
Y211007D01*
X291022D01*
Y210978D01*
X291052D01*
Y210948D01*
X291082D01*
Y210918D01*
X291111D01*
Y210889D01*
X291141D01*
Y210859D01*
X291170D01*
Y210830D01*
X291200D01*
Y210770D01*
X291230D01*
Y210711D01*
X291259D01*
Y210652D01*
X291289D01*
Y210474D01*
X291318D01*
Y210385D01*
X291289D01*
Y210237D01*
X291259D01*
Y210148D01*
X291230D01*
Y210089D01*
X291200D01*
Y210030D01*
X291170D01*
Y210000D01*
X291141D01*
Y209970D01*
X291111D01*
Y209941D01*
X291082D01*
Y209911D01*
X291052D01*
Y209881D01*
X291022D01*
Y209852D01*
X290963D01*
Y209822D01*
X290904D01*
Y209793D01*
X290815D01*
Y209763D01*
X290667D01*
Y209733D01*
X288948D01*
Y209763D01*
X288800D01*
Y209793D01*
X288711D01*
Y209822D01*
X288652D01*
Y209852D01*
X288622D01*
Y209881D01*
X288563D01*
Y209911D01*
X288533D01*
Y209941D01*
X288504D01*
Y209970D01*
X288474D01*
Y210030D01*
X288444D01*
Y210059D01*
X288415D01*
Y210119D01*
X288385D01*
Y210178D01*
X288355D01*
Y210267D01*
X288326D01*
Y210593D01*
X288355D01*
Y210711D01*
X288385D01*
Y210770D01*
X288415D01*
Y210800D01*
X288444D01*
Y210859D01*
X288474D01*
Y210889D01*
X288504D01*
Y210918D01*
X288533D01*
Y210948D01*
X288563D01*
Y210978D01*
X288593D01*
Y211007D01*
X288652D01*
Y211037D01*
X288711D01*
Y211067D01*
X288770D01*
Y211096D01*
X288889D01*
Y211126D01*
X290726D01*
Y211096D01*
D02*
G37*
G36*
X319081Y210948D02*
X319141D01*
Y210918D01*
X319200D01*
Y210889D01*
X319259D01*
Y210859D01*
X319289D01*
Y210830D01*
X319348D01*
Y210800D01*
X319378D01*
Y210770D01*
X319407D01*
Y210711D01*
X319437D01*
Y210682D01*
X319467D01*
Y210622D01*
X319496D01*
Y210563D01*
X319526D01*
Y210474D01*
X319555D01*
Y210119D01*
X319526D01*
Y210030D01*
X319496D01*
Y209970D01*
X319467D01*
Y209911D01*
X319437D01*
Y209881D01*
X319407D01*
Y209852D01*
X319378D01*
Y209793D01*
X319319D01*
Y209763D01*
X319289D01*
Y209733D01*
X319259D01*
Y209704D01*
X319200D01*
Y209674D01*
X319141D01*
Y209645D01*
X319052D01*
Y209615D01*
X317096D01*
Y209645D01*
X317007D01*
Y209674D01*
X316948D01*
Y209704D01*
X316889D01*
Y209733D01*
X316859D01*
Y209763D01*
X316800D01*
Y209793D01*
X316770D01*
Y209822D01*
X316741D01*
Y209852D01*
X316711D01*
Y209911D01*
X316682D01*
Y209941D01*
X316652D01*
Y210000D01*
X316622D01*
Y210089D01*
X316593D01*
Y210237D01*
X316563D01*
Y210356D01*
X316593D01*
Y210504D01*
X316622D01*
Y210593D01*
X316652D01*
Y210652D01*
X316682D01*
Y210682D01*
X316711D01*
Y210741D01*
X316741D01*
Y210770D01*
X316770D01*
Y210800D01*
X316800D01*
Y210830D01*
X316830D01*
Y210859D01*
X316889D01*
Y210889D01*
X316918D01*
Y210918D01*
X316978D01*
Y210948D01*
X317067D01*
Y210978D01*
X319081D01*
Y210948D01*
D02*
G37*
G36*
X290696Y207807D02*
X290844D01*
Y207778D01*
X290904D01*
Y207748D01*
X290963D01*
Y207718D01*
X291022D01*
Y207689D01*
X291052D01*
Y207659D01*
X291082D01*
Y207630D01*
X291111D01*
Y207600D01*
X291141D01*
Y207570D01*
X291170D01*
Y207541D01*
X291200D01*
Y207482D01*
X291230D01*
Y207422D01*
X291259D01*
Y207333D01*
X291289D01*
Y207156D01*
X291318D01*
Y207096D01*
X291289D01*
Y206948D01*
X291259D01*
Y206859D01*
X291230D01*
Y206800D01*
X291200D01*
Y206741D01*
X291170D01*
Y206711D01*
X291141D01*
Y206681D01*
X291111D01*
Y206652D01*
X291082D01*
Y206622D01*
X291052D01*
Y206593D01*
X291022D01*
Y206563D01*
X290963D01*
Y206533D01*
X290904D01*
Y206504D01*
X290844D01*
Y206474D01*
X290726D01*
Y206445D01*
X288889D01*
Y206474D01*
X288770D01*
Y206504D01*
X288711D01*
Y206533D01*
X288652D01*
Y206563D01*
X288593D01*
Y206593D01*
X288563D01*
Y206622D01*
X288533D01*
Y206652D01*
X288504D01*
Y206681D01*
X288474D01*
Y206711D01*
X288444D01*
Y206770D01*
X288415D01*
Y206800D01*
X288385D01*
Y206859D01*
X288355D01*
Y206978D01*
X288326D01*
Y207333D01*
X288355D01*
Y207393D01*
X288385D01*
Y207452D01*
X288415D01*
Y207511D01*
X288444D01*
Y207570D01*
X288474D01*
Y207600D01*
X288504D01*
Y207630D01*
X288533D01*
Y207659D01*
X288563D01*
Y207689D01*
X288622D01*
Y207718D01*
X288652D01*
Y207748D01*
X288711D01*
Y207778D01*
X288800D01*
Y207807D01*
X288918D01*
Y207837D01*
X290696D01*
Y207807D01*
D02*
G37*
G36*
X319052Y207659D02*
X319141D01*
Y207630D01*
X319200D01*
Y207600D01*
X319259D01*
Y207570D01*
X319289D01*
Y207541D01*
X319319D01*
Y207511D01*
X319348D01*
Y207482D01*
X319378D01*
Y207452D01*
X319407D01*
Y207422D01*
X319437D01*
Y207393D01*
X319467D01*
Y207333D01*
X319496D01*
Y207274D01*
X319526D01*
Y207185D01*
X319555D01*
Y206830D01*
X319526D01*
Y206741D01*
X319496D01*
Y206681D01*
X319467D01*
Y206622D01*
X319437D01*
Y206593D01*
X319407D01*
Y206533D01*
X319378D01*
Y206504D01*
X319348D01*
Y206474D01*
X319289D01*
Y206445D01*
X319259D01*
Y206415D01*
X319200D01*
Y206385D01*
X319141D01*
Y206356D01*
X319081D01*
Y206326D01*
X317096D01*
Y206356D01*
X316978D01*
Y206385D01*
X316918D01*
Y206415D01*
X316889D01*
Y206445D01*
X316830D01*
Y206474D01*
X316800D01*
Y206504D01*
X316770D01*
Y206533D01*
X316741D01*
Y206563D01*
X316711D01*
Y206622D01*
X316682D01*
Y206652D01*
X316652D01*
Y206711D01*
X316622D01*
Y206800D01*
X316593D01*
Y206948D01*
X316563D01*
Y207096D01*
X316593D01*
Y207215D01*
X316622D01*
Y207304D01*
X316652D01*
Y207363D01*
X316682D01*
Y207393D01*
X316711D01*
Y207452D01*
X316741D01*
Y207482D01*
X316770D01*
Y207511D01*
X316800D01*
Y207541D01*
X316859D01*
Y207570D01*
X316889D01*
Y207600D01*
X316948D01*
Y207630D01*
X317007D01*
Y207659D01*
X317096D01*
Y207689D01*
X319052D01*
Y207659D01*
D02*
G37*
G36*
X290815Y204459D02*
X290874D01*
Y204430D01*
X290963D01*
Y204400D01*
X290993D01*
Y204370D01*
X291052D01*
Y204341D01*
X291082D01*
Y204311D01*
X291111D01*
Y204281D01*
X291141D01*
Y204252D01*
X291170D01*
Y204193D01*
X291200D01*
Y204163D01*
X291230D01*
Y204104D01*
X291259D01*
Y204015D01*
X291289D01*
Y203896D01*
X291318D01*
Y203718D01*
X291289D01*
Y203570D01*
X291259D01*
Y203511D01*
X291230D01*
Y203452D01*
X291200D01*
Y203393D01*
X291170D01*
Y203363D01*
X291141D01*
Y203333D01*
X291111D01*
Y203304D01*
X291082D01*
Y203274D01*
X291052D01*
Y203244D01*
X291022D01*
Y203215D01*
X290963D01*
Y203185D01*
X290904D01*
Y203156D01*
X290815D01*
Y203126D01*
X290578D01*
Y203096D01*
X289037D01*
Y203126D01*
X288800D01*
Y203156D01*
X288711D01*
Y203185D01*
X288652D01*
Y203215D01*
X288622D01*
Y203244D01*
X288563D01*
Y203274D01*
X288533D01*
Y203304D01*
X288504D01*
Y203333D01*
X288474D01*
Y203363D01*
X288444D01*
Y203422D01*
X288415D01*
Y203452D01*
X288385D01*
Y203511D01*
X288355D01*
Y203600D01*
X288326D01*
Y204015D01*
X288355D01*
Y204074D01*
X288385D01*
Y204163D01*
X288415D01*
Y204193D01*
X288444D01*
Y204222D01*
X288474D01*
Y204281D01*
X288504D01*
Y204311D01*
X288533D01*
Y204341D01*
X288593D01*
Y204370D01*
X288622D01*
Y204400D01*
X288682D01*
Y204430D01*
X288741D01*
Y204459D01*
X288830D01*
Y204489D01*
X290815D01*
Y204459D01*
D02*
G37*
G36*
X318993Y204341D02*
X319111D01*
Y204311D01*
X319170D01*
Y204281D01*
X319230D01*
Y204252D01*
X319289D01*
Y204222D01*
X319319D01*
Y204193D01*
X319348D01*
Y204163D01*
X319378D01*
Y204133D01*
X319407D01*
Y204104D01*
X319437D01*
Y204074D01*
X319467D01*
Y204015D01*
X319496D01*
Y203956D01*
X319526D01*
Y203867D01*
X319555D01*
Y203482D01*
X319526D01*
Y203393D01*
X319496D01*
Y203333D01*
X319467D01*
Y203274D01*
X319437D01*
Y203244D01*
X319407D01*
Y203215D01*
X319378D01*
Y203185D01*
X319348D01*
Y203156D01*
X319319D01*
Y203126D01*
X319289D01*
Y203096D01*
X319230D01*
Y203067D01*
X319200D01*
Y203037D01*
X319111D01*
Y203007D01*
X319022D01*
Y202978D01*
X317126D01*
Y203007D01*
X317007D01*
Y203037D01*
X316948D01*
Y203067D01*
X316889D01*
Y203096D01*
X316859D01*
Y203126D01*
X316830D01*
Y203156D01*
X316770D01*
Y203185D01*
X316741D01*
Y203244D01*
X316711D01*
Y203274D01*
X316682D01*
Y203304D01*
X316652D01*
Y203363D01*
X316622D01*
Y203452D01*
X316593D01*
Y203570D01*
X316563D01*
Y203778D01*
X316593D01*
Y203896D01*
X316622D01*
Y203956D01*
X316652D01*
Y204015D01*
X316682D01*
Y204074D01*
X316711D01*
Y204104D01*
X316741D01*
Y204133D01*
X316770D01*
Y204163D01*
X316800D01*
Y204193D01*
X316830D01*
Y204222D01*
X316859D01*
Y204252D01*
X316918D01*
Y204281D01*
X316978D01*
Y204311D01*
X317037D01*
Y204341D01*
X317156D01*
Y204370D01*
X318993D01*
Y204341D01*
D02*
G37*
G36*
X314370Y215096D02*
X314548D01*
Y215067D01*
X314667D01*
Y215037D01*
X314756D01*
Y215007D01*
X314844D01*
Y214978D01*
X314904D01*
Y214948D01*
X314963D01*
Y214918D01*
X315022D01*
Y214889D01*
X315082D01*
Y214859D01*
X315141D01*
Y214830D01*
X315170D01*
Y214800D01*
X315230D01*
Y214770D01*
X315259D01*
Y214741D01*
X315289D01*
Y214711D01*
X315348D01*
Y214682D01*
X315378D01*
Y214652D01*
X315407D01*
Y214622D01*
X315437D01*
Y214593D01*
X315467D01*
Y214563D01*
X315496D01*
Y214533D01*
X315526D01*
Y214504D01*
X315556D01*
Y214444D01*
X315585D01*
Y214415D01*
X315615D01*
Y214385D01*
X315644D01*
Y214326D01*
X315674D01*
Y214296D01*
X315704D01*
Y214237D01*
X315733D01*
Y214207D01*
X315763D01*
Y214148D01*
X315793D01*
Y214089D01*
X315822D01*
Y214000D01*
X315852D01*
Y213941D01*
X315881D01*
Y213852D01*
X315911D01*
Y213733D01*
X315941D01*
Y213585D01*
X315970D01*
Y203718D01*
X315941D01*
Y203570D01*
X315911D01*
Y203452D01*
X315881D01*
Y203363D01*
X315852D01*
Y203304D01*
X315822D01*
Y203215D01*
X315793D01*
Y203156D01*
X315763D01*
Y203096D01*
X315733D01*
Y203067D01*
X315704D01*
Y203007D01*
X315674D01*
Y202978D01*
X315644D01*
Y202919D01*
X315615D01*
Y202889D01*
X315585D01*
Y202859D01*
X315556D01*
Y202800D01*
X315526D01*
Y202770D01*
X315496D01*
Y202741D01*
X315467D01*
Y202711D01*
X315437D01*
Y202681D01*
X315407D01*
Y202652D01*
X315378D01*
Y202622D01*
X315348D01*
Y202593D01*
X315289D01*
Y202563D01*
X315259D01*
Y202533D01*
X315230D01*
Y202504D01*
X315170D01*
Y202474D01*
X315141D01*
Y202445D01*
X315082D01*
Y202415D01*
X315022D01*
Y202385D01*
X314963D01*
Y202356D01*
X314904D01*
Y202326D01*
X314844D01*
Y202296D01*
X314756D01*
Y202267D01*
X314667D01*
Y202237D01*
X314548D01*
Y202207D01*
X314370D01*
Y202178D01*
X293511D01*
Y202207D01*
X293333D01*
Y202237D01*
X293215D01*
Y202267D01*
X293126D01*
Y202296D01*
X293037D01*
Y202326D01*
X292978D01*
Y202356D01*
X292918D01*
Y202385D01*
X292859D01*
Y202415D01*
X292800D01*
Y202445D01*
X292741D01*
Y202474D01*
X292711D01*
Y202504D01*
X292652D01*
Y202533D01*
X292622D01*
Y202563D01*
X292593D01*
Y202593D01*
X292533D01*
Y202622D01*
X292504D01*
Y202652D01*
X292474D01*
Y202681D01*
X292444D01*
Y202711D01*
X292415D01*
Y202741D01*
X292385D01*
Y202770D01*
X292355D01*
Y202800D01*
X292326D01*
Y202859D01*
X292296D01*
Y202889D01*
X292267D01*
Y202919D01*
X292237D01*
Y202978D01*
X292207D01*
Y203007D01*
X292178D01*
Y203067D01*
X292148D01*
Y203096D01*
X292119D01*
Y203156D01*
X292089D01*
Y203215D01*
X292059D01*
Y203304D01*
X292030D01*
Y203363D01*
X292000D01*
Y203452D01*
X291970D01*
Y203570D01*
X291941D01*
Y203718D01*
X291911D01*
Y213585D01*
X291941D01*
Y213733D01*
X291970D01*
Y213852D01*
X292000D01*
Y213941D01*
X292030D01*
Y214000D01*
X292059D01*
Y214089D01*
X292089D01*
Y214148D01*
X292119D01*
Y214207D01*
X292148D01*
Y214237D01*
X292178D01*
Y214296D01*
X292207D01*
Y214326D01*
X292237D01*
Y214385D01*
X292267D01*
Y214415D01*
X292296D01*
Y214444D01*
X292326D01*
Y214504D01*
X292355D01*
Y214533D01*
X292385D01*
Y214563D01*
X292415D01*
Y214593D01*
X292444D01*
Y214622D01*
X292474D01*
Y214652D01*
X292504D01*
Y214682D01*
X292533D01*
Y214711D01*
X292593D01*
Y214741D01*
X292622D01*
Y214770D01*
X292652D01*
Y214800D01*
X292711D01*
Y214830D01*
X292741D01*
Y214859D01*
X292800D01*
Y214889D01*
X292859D01*
Y214918D01*
X292918D01*
Y214948D01*
X292978D01*
Y214978D01*
X293037D01*
Y215007D01*
X293126D01*
Y215037D01*
X293215D01*
Y215067D01*
X293333D01*
Y215096D01*
X293511D01*
Y215126D01*
X314370D01*
Y215096D01*
D02*
G37*
G36*
X312119Y201467D02*
X312237D01*
Y201437D01*
X312326D01*
Y201407D01*
X312385D01*
Y201378D01*
X312444D01*
Y201348D01*
X312474D01*
Y201319D01*
X312504D01*
Y201289D01*
X312533D01*
Y201259D01*
X312563D01*
Y201230D01*
X312593D01*
Y201170D01*
X312622D01*
Y201141D01*
X312652D01*
Y201081D01*
X312682D01*
Y200993D01*
X312711D01*
Y198978D01*
X312682D01*
Y198918D01*
X312652D01*
Y198859D01*
X312622D01*
Y198800D01*
X312593D01*
Y198770D01*
X312563D01*
Y198711D01*
X312533D01*
Y198681D01*
X312504D01*
Y198652D01*
X312474D01*
Y198622D01*
X312415D01*
Y198593D01*
X312355D01*
Y198563D01*
X312296D01*
Y198533D01*
X312207D01*
Y198504D01*
X311852D01*
Y198533D01*
X311763D01*
Y198563D01*
X311704D01*
Y198593D01*
X311644D01*
Y198622D01*
X311615D01*
Y198652D01*
X311585D01*
Y198681D01*
X311556D01*
Y198711D01*
X311526D01*
Y198741D01*
X311496D01*
Y198770D01*
X311467D01*
Y198800D01*
X311437D01*
Y198859D01*
X311407D01*
Y198918D01*
X311378D01*
Y199037D01*
X311348D01*
Y200963D01*
X311378D01*
Y201052D01*
X311407D01*
Y201111D01*
X311437D01*
Y201170D01*
X311467D01*
Y201200D01*
X311496D01*
Y201259D01*
X311526D01*
Y201289D01*
X311556D01*
Y201319D01*
X311615D01*
Y201348D01*
X311644D01*
Y201378D01*
X311674D01*
Y201407D01*
X311733D01*
Y201437D01*
X311822D01*
Y201467D01*
X311970D01*
Y201496D01*
X312119D01*
Y201467D01*
D02*
G37*
G36*
X308741D02*
X308889D01*
Y201437D01*
X308978D01*
Y201407D01*
X309037D01*
Y201378D01*
X309096D01*
Y201348D01*
X309126D01*
Y201319D01*
X309156D01*
Y201289D01*
X309185D01*
Y201259D01*
X309215D01*
Y201230D01*
X309244D01*
Y201200D01*
X309274D01*
Y201141D01*
X309304D01*
Y201081D01*
X309333D01*
Y201022D01*
X309363D01*
Y200933D01*
X309393D01*
Y199067D01*
X309363D01*
Y198948D01*
X309333D01*
Y198889D01*
X309304D01*
Y198830D01*
X309274D01*
Y198770D01*
X309244D01*
Y198741D01*
X309215D01*
Y198711D01*
X309185D01*
Y198681D01*
X309156D01*
Y198652D01*
X309126D01*
Y198622D01*
X309067D01*
Y198593D01*
X309037D01*
Y198563D01*
X308978D01*
Y198533D01*
X308859D01*
Y198504D01*
X308533D01*
Y198533D01*
X308444D01*
Y198563D01*
X308385D01*
Y198593D01*
X308326D01*
Y198622D01*
X308296D01*
Y198652D01*
X308237D01*
Y198681D01*
X308207D01*
Y198711D01*
X308178D01*
Y198741D01*
X308148D01*
Y198800D01*
X308119D01*
Y198830D01*
X308089D01*
Y198889D01*
X308059D01*
Y198978D01*
X308030D01*
Y199156D01*
X308000D01*
Y200845D01*
X308030D01*
Y200993D01*
X308059D01*
Y201081D01*
X308089D01*
Y201141D01*
X308119D01*
Y201170D01*
X308148D01*
Y201230D01*
X308178D01*
Y201259D01*
X308207D01*
Y201289D01*
X308237D01*
Y201319D01*
X308267D01*
Y201348D01*
X308326D01*
Y201378D01*
X308355D01*
Y201407D01*
X308415D01*
Y201437D01*
X308504D01*
Y201467D01*
X308652D01*
Y201496D01*
X308741D01*
Y201467D01*
D02*
G37*
G36*
X305452D02*
X305600D01*
Y201437D01*
X305689D01*
Y201407D01*
X305748D01*
Y201378D01*
X305807D01*
Y201348D01*
X305837D01*
Y201319D01*
X305867D01*
Y201289D01*
X305896D01*
Y201259D01*
X305926D01*
Y201230D01*
X305956D01*
Y201200D01*
X305985D01*
Y201141D01*
X306015D01*
Y201081D01*
X306044D01*
Y201022D01*
X306074D01*
Y200874D01*
X306104D01*
Y199600D01*
Y199570D01*
Y199096D01*
X306074D01*
Y198978D01*
X306044D01*
Y198889D01*
X306015D01*
Y198830D01*
X305985D01*
Y198800D01*
X305956D01*
Y198741D01*
X305926D01*
Y198711D01*
X305896D01*
Y198681D01*
X305867D01*
Y198652D01*
X305837D01*
Y198622D01*
X305778D01*
Y198593D01*
X305718D01*
Y198563D01*
X305659D01*
Y198533D01*
X305570D01*
Y198504D01*
X305244D01*
Y198533D01*
X305155D01*
Y198563D01*
X305096D01*
Y198593D01*
X305037D01*
Y198622D01*
X304978D01*
Y198652D01*
X304948D01*
Y198681D01*
X304919D01*
Y198711D01*
X304889D01*
Y198741D01*
X304859D01*
Y198800D01*
X304830D01*
Y198830D01*
X304800D01*
Y198889D01*
X304770D01*
Y198978D01*
X304741D01*
Y199096D01*
X304711D01*
Y200874D01*
X304741D01*
Y201022D01*
X304770D01*
Y201081D01*
X304800D01*
Y201141D01*
X304830D01*
Y201200D01*
X304859D01*
Y201230D01*
X304889D01*
Y201259D01*
X304919D01*
Y201289D01*
X304948D01*
Y201319D01*
X304978D01*
Y201348D01*
X305007D01*
Y201378D01*
X305067D01*
Y201407D01*
X305126D01*
Y201437D01*
X305215D01*
Y201467D01*
X305363D01*
Y201496D01*
X305452D01*
Y201467D01*
D02*
G37*
G36*
X302163D02*
X302311D01*
Y201437D01*
X302370D01*
Y201407D01*
X302430D01*
Y201378D01*
X302489D01*
Y201348D01*
X302519D01*
Y201319D01*
X302548D01*
Y201289D01*
X302578D01*
Y201259D01*
X302607D01*
Y201230D01*
X302637D01*
Y201170D01*
X302667D01*
Y201141D01*
X302696D01*
Y201052D01*
X302726D01*
Y200993D01*
X302755D01*
Y199007D01*
X302726D01*
Y198918D01*
X302696D01*
Y198859D01*
X302667D01*
Y198800D01*
X302637D01*
Y198770D01*
X302607D01*
Y198711D01*
X302578D01*
Y198681D01*
X302548D01*
Y198652D01*
X302489D01*
Y198622D01*
X302459D01*
Y198593D01*
X302400D01*
Y198563D01*
X302341D01*
Y198533D01*
X302281D01*
Y198504D01*
X301867D01*
Y198533D01*
X301778D01*
Y198563D01*
X301718D01*
Y198593D01*
X301689D01*
Y198622D01*
X301630D01*
Y198652D01*
X301600D01*
Y198681D01*
X301570D01*
Y198711D01*
X301541D01*
Y198741D01*
X301511D01*
Y198800D01*
X301482D01*
Y198830D01*
X301452D01*
Y198918D01*
X301422D01*
Y198978D01*
X301393D01*
Y200222D01*
Y200252D01*
Y200993D01*
X301422D01*
Y201081D01*
X301452D01*
Y201141D01*
X301482D01*
Y201200D01*
X301511D01*
Y201230D01*
X301541D01*
Y201259D01*
X301570D01*
Y201289D01*
X301600D01*
Y201319D01*
X301630D01*
Y201348D01*
X301659D01*
Y201378D01*
X301718D01*
Y201407D01*
X301778D01*
Y201437D01*
X301837D01*
Y201467D01*
X301985D01*
Y201496D01*
X302163D01*
Y201467D01*
D02*
G37*
G36*
X298874D02*
X299022D01*
Y201437D01*
X299111D01*
Y201407D01*
X299170D01*
Y201378D01*
X299200D01*
Y201348D01*
X299259D01*
Y201319D01*
X299289D01*
Y201289D01*
X299319D01*
Y201259D01*
X299348D01*
Y201230D01*
X299378D01*
Y201170D01*
X299407D01*
Y201111D01*
X299437D01*
Y201052D01*
X299467D01*
Y200963D01*
X299496D01*
Y199007D01*
X299467D01*
Y198918D01*
X299437D01*
Y198859D01*
X299407D01*
Y198800D01*
X299378D01*
Y198770D01*
X299348D01*
Y198741D01*
X299319D01*
Y198681D01*
X299259D01*
Y198652D01*
X299230D01*
Y198622D01*
X299200D01*
Y198593D01*
X299141D01*
Y198563D01*
X299081D01*
Y198533D01*
X298993D01*
Y198504D01*
X298637D01*
Y198533D01*
X298548D01*
Y198563D01*
X298489D01*
Y198593D01*
X298430D01*
Y198622D01*
X298400D01*
Y198652D01*
X298370D01*
Y198681D01*
X298311D01*
Y198711D01*
X298282D01*
Y198770D01*
X298252D01*
Y198800D01*
X298222D01*
Y198859D01*
X298193D01*
Y198918D01*
X298163D01*
Y199007D01*
X298133D01*
Y200963D01*
X298163D01*
Y201052D01*
X298193D01*
Y201111D01*
X298222D01*
Y201170D01*
X298252D01*
Y201230D01*
X298282D01*
Y201259D01*
X298311D01*
Y201289D01*
X298341D01*
Y201319D01*
X298370D01*
Y201348D01*
X298430D01*
Y201378D01*
X298459D01*
Y201407D01*
X298518D01*
Y201437D01*
X298607D01*
Y201467D01*
X298756D01*
Y201496D01*
X298874D01*
Y201467D01*
D02*
G37*
G36*
X295585D02*
X295704D01*
Y201437D01*
X295793D01*
Y201407D01*
X295822D01*
Y201378D01*
X295882D01*
Y201348D01*
X295911D01*
Y201319D01*
X295941D01*
Y201289D01*
X295970D01*
Y201259D01*
X296000D01*
Y201230D01*
X296030D01*
Y201200D01*
X296059D01*
Y201170D01*
X296089D01*
Y201111D01*
X296118D01*
Y201022D01*
X296148D01*
Y200904D01*
X296178D01*
Y199067D01*
X296148D01*
Y198948D01*
X296118D01*
Y198889D01*
X296089D01*
Y198830D01*
X296059D01*
Y198770D01*
X296030D01*
Y198741D01*
X296000D01*
Y198711D01*
X295970D01*
Y198681D01*
X295941D01*
Y198652D01*
X295911D01*
Y198622D01*
X295882D01*
Y198593D01*
X295822D01*
Y198563D01*
X295763D01*
Y198533D01*
X295674D01*
Y198504D01*
X295289D01*
Y198533D01*
X295200D01*
Y198563D01*
X295141D01*
Y198593D01*
X295081D01*
Y198622D01*
X295052D01*
Y198652D01*
X295022D01*
Y198681D01*
X294993D01*
Y198711D01*
X294963D01*
Y198741D01*
X294933D01*
Y198770D01*
X294904D01*
Y198800D01*
X294874D01*
Y198859D01*
X294844D01*
Y198948D01*
X294815D01*
Y199037D01*
X294785D01*
Y200933D01*
X294815D01*
Y201052D01*
X294844D01*
Y201111D01*
X294874D01*
Y201170D01*
X294904D01*
Y201200D01*
X294933D01*
Y201259D01*
X294963D01*
Y201289D01*
X294993D01*
Y201319D01*
X295022D01*
Y201348D01*
X295081D01*
Y201378D01*
X295111D01*
Y201407D01*
X295170D01*
Y201437D01*
X295259D01*
Y201467D01*
X295378D01*
Y201496D01*
X295585D01*
Y201467D01*
D02*
G37*
%LPC*%
G36*
X314430Y214474D02*
X293452D01*
Y214444D01*
X293363D01*
Y214415D01*
X293274D01*
Y214385D01*
X293215D01*
Y214356D01*
X293156D01*
Y214326D01*
X293096D01*
Y214296D01*
X293037D01*
Y214267D01*
X293007D01*
Y214237D01*
X292978D01*
Y214207D01*
X292948D01*
Y214178D01*
X292918D01*
Y214148D01*
X292889D01*
Y214119D01*
X292859D01*
Y214089D01*
X292830D01*
Y214059D01*
X292800D01*
Y214030D01*
X292770D01*
Y214000D01*
X292741D01*
Y213941D01*
X292711D01*
Y213911D01*
X292682D01*
Y213852D01*
X292652D01*
Y213793D01*
X292622D01*
Y213704D01*
X292593D01*
Y213615D01*
X292563D01*
Y213437D01*
X292533D01*
Y203867D01*
X292563D01*
Y203689D01*
X292593D01*
Y203600D01*
X292622D01*
Y203541D01*
X292652D01*
Y203452D01*
X292682D01*
Y203393D01*
X292711D01*
Y203363D01*
X292741D01*
Y203304D01*
X292770D01*
Y203274D01*
X292800D01*
Y203244D01*
X292830D01*
Y203215D01*
X292859D01*
Y203185D01*
X292889D01*
Y203156D01*
X292918D01*
Y203096D01*
X292978D01*
Y203067D01*
X293007D01*
Y203037D01*
X293037D01*
Y203007D01*
X293096D01*
Y202978D01*
X293156D01*
Y202948D01*
X293215D01*
Y202919D01*
X293274D01*
Y202889D01*
X293333D01*
Y202859D01*
X293452D01*
Y202830D01*
X314430D01*
Y202859D01*
X314548D01*
Y202889D01*
X314607D01*
Y202919D01*
X314667D01*
Y202948D01*
X314726D01*
Y202978D01*
X314785D01*
Y203007D01*
X314844D01*
Y203037D01*
X314874D01*
Y203067D01*
X314904D01*
Y203096D01*
X314933D01*
Y203126D01*
X314963D01*
Y203156D01*
X314993D01*
Y203185D01*
X315022D01*
Y203215D01*
X315052D01*
Y203244D01*
X315082D01*
Y203274D01*
X315111D01*
Y203304D01*
X315141D01*
Y203363D01*
X315170D01*
Y203393D01*
X315200D01*
Y203452D01*
X315230D01*
Y203541D01*
X315259D01*
Y203600D01*
X315289D01*
Y203689D01*
X315318D01*
Y203867D01*
X315348D01*
Y211096D01*
Y211126D01*
Y213437D01*
X315318D01*
Y213615D01*
X315289D01*
Y213704D01*
X315259D01*
Y213793D01*
X315230D01*
Y213852D01*
X315200D01*
Y213881D01*
X315170D01*
Y213941D01*
X315141D01*
Y214000D01*
X315111D01*
Y214030D01*
X315082D01*
Y214059D01*
X315052D01*
Y214089D01*
X315022D01*
Y214119D01*
X314993D01*
Y214148D01*
X314963D01*
Y214178D01*
X314933D01*
Y214207D01*
X314904D01*
Y214237D01*
X314874D01*
Y214267D01*
X314844D01*
Y214296D01*
X314785D01*
Y214326D01*
X314726D01*
Y214356D01*
X314667D01*
Y214385D01*
X314607D01*
Y214415D01*
X314518D01*
Y214444D01*
X314430D01*
Y214474D01*
D02*
G37*
%LPD*%
G36*
X313304Y212963D02*
X313393D01*
Y212933D01*
X313422D01*
Y212904D01*
X313481D01*
Y212874D01*
X313511D01*
Y212844D01*
X313541D01*
Y212785D01*
X313570D01*
Y212696D01*
X313600D01*
Y212163D01*
X313570D01*
Y212074D01*
X313541D01*
Y212015D01*
X313511D01*
Y211985D01*
X313481D01*
Y211956D01*
X313452D01*
Y211926D01*
X313393D01*
Y211896D01*
X313333D01*
Y211867D01*
X308652D01*
Y209259D01*
X313037D01*
Y209230D01*
X313096D01*
Y209200D01*
X313156D01*
Y209170D01*
X313185D01*
Y209141D01*
X313215D01*
Y209082D01*
X313244D01*
Y209052D01*
X313274D01*
Y208370D01*
X313244D01*
Y208311D01*
X313215D01*
Y208281D01*
X313185D01*
Y208252D01*
X313156D01*
Y208222D01*
X313126D01*
Y208193D01*
X313067D01*
Y208163D01*
X313007D01*
Y208133D01*
X308652D01*
Y205467D01*
Y205437D01*
X313452D01*
Y205407D01*
X313511D01*
Y205378D01*
X313570D01*
Y205348D01*
X313600D01*
Y205318D01*
X313630D01*
Y205289D01*
X313659D01*
Y205230D01*
X313689D01*
Y204548D01*
X313659D01*
Y204489D01*
X313630D01*
Y204430D01*
X313570D01*
Y204400D01*
X313541D01*
Y204370D01*
X313481D01*
Y204341D01*
X313422D01*
Y204311D01*
X307526D01*
Y204341D01*
X307437D01*
Y204370D01*
X307378D01*
Y204400D01*
X307318D01*
Y204430D01*
X307289D01*
Y204459D01*
X307259D01*
Y204489D01*
X307200D01*
Y204519D01*
X307170D01*
Y204548D01*
X307141D01*
Y204578D01*
X307111D01*
Y204637D01*
X307082D01*
Y204667D01*
X307052D01*
Y204696D01*
X307022D01*
Y204726D01*
X306993D01*
Y204756D01*
X306963D01*
Y204815D01*
X306933D01*
Y204844D01*
X306904D01*
Y204874D01*
X306874D01*
Y204904D01*
X306844D01*
Y204963D01*
X306815D01*
Y204993D01*
X306785D01*
Y205022D01*
X306755D01*
Y205052D01*
X306726D01*
Y205111D01*
X306696D01*
Y205141D01*
X306667D01*
Y205170D01*
X306637D01*
Y205200D01*
X306607D01*
Y205230D01*
X306578D01*
Y205289D01*
X306548D01*
Y205318D01*
X306519D01*
Y205348D01*
X306489D01*
Y205378D01*
X306459D01*
Y205437D01*
X306430D01*
Y205467D01*
X306400D01*
Y205496D01*
X306370D01*
Y205526D01*
X306341D01*
Y205556D01*
X306311D01*
Y205615D01*
X306281D01*
Y205644D01*
X306252D01*
Y205674D01*
X306222D01*
Y205704D01*
X306193D01*
Y205763D01*
X306163D01*
Y205793D01*
X306133D01*
Y205822D01*
X306104D01*
Y205852D01*
X306074D01*
Y205882D01*
X306044D01*
Y205941D01*
X306015D01*
Y205970D01*
X305985D01*
Y206000D01*
X305956D01*
Y206030D01*
X305926D01*
Y206089D01*
X305896D01*
Y206118D01*
X305867D01*
Y206148D01*
X305837D01*
Y206178D01*
X305807D01*
Y206237D01*
X305778D01*
Y206267D01*
X305748D01*
Y206296D01*
X305718D01*
Y206326D01*
X305689D01*
Y206356D01*
X305659D01*
Y206415D01*
X305630D01*
Y206445D01*
X305600D01*
Y206474D01*
X305570D01*
Y206504D01*
X305541D01*
Y206533D01*
X305511D01*
Y206593D01*
X305482D01*
Y206622D01*
X305452D01*
Y206652D01*
X305422D01*
Y206681D01*
X305393D01*
Y206741D01*
X305363D01*
Y206770D01*
X305333D01*
Y206800D01*
X305304D01*
Y206830D01*
X305274D01*
Y206889D01*
X305244D01*
Y206919D01*
X305215D01*
Y206948D01*
X305185D01*
Y206978D01*
X305155D01*
Y207007D01*
X305126D01*
Y207067D01*
X305096D01*
Y207096D01*
X305067D01*
Y207126D01*
X305037D01*
Y207156D01*
X305007D01*
Y207215D01*
X304978D01*
Y207244D01*
X304948D01*
Y207274D01*
X304919D01*
Y207304D01*
X304889D01*
Y207333D01*
X304859D01*
Y207393D01*
X304830D01*
Y207422D01*
X304800D01*
Y207452D01*
X304770D01*
Y207482D01*
X304741D01*
Y207511D01*
X304711D01*
Y207570D01*
X304681D01*
Y207600D01*
X304652D01*
Y207630D01*
X304622D01*
Y207689D01*
X304593D01*
Y207718D01*
X304563D01*
Y207748D01*
X304533D01*
Y207778D01*
X304504D01*
Y207807D01*
X304474D01*
Y207867D01*
X304444D01*
Y207896D01*
X304415D01*
Y207926D01*
X304385D01*
Y207956D01*
X304356D01*
Y208015D01*
X304326D01*
Y208045D01*
X304296D01*
Y208074D01*
X304267D01*
Y208104D01*
X304237D01*
Y208133D01*
X304207D01*
Y208193D01*
X304178D01*
Y208222D01*
X304148D01*
Y208252D01*
X304118D01*
Y208281D01*
X304089D01*
Y208341D01*
X304059D01*
Y208370D01*
X304030D01*
Y208400D01*
X304000D01*
Y208430D01*
X303970D01*
Y208459D01*
X303941D01*
Y208519D01*
X303911D01*
Y208548D01*
X303882D01*
Y208578D01*
X303852D01*
Y208607D01*
X303822D01*
Y208667D01*
X303793D01*
Y208696D01*
X303763D01*
Y208726D01*
X303733D01*
Y208756D01*
X303704D01*
Y208785D01*
X303674D01*
Y208844D01*
X303644D01*
Y208874D01*
X303615D01*
Y208904D01*
X303585D01*
Y208933D01*
X303555D01*
Y208993D01*
X303526D01*
Y209022D01*
X303496D01*
Y209052D01*
X303467D01*
Y209082D01*
X303437D01*
Y209141D01*
X303407D01*
Y209170D01*
X303378D01*
Y209200D01*
X303348D01*
Y209230D01*
X303319D01*
Y209259D01*
X303289D01*
Y209318D01*
X303259D01*
Y209348D01*
X303230D01*
Y209378D01*
X303200D01*
Y209407D01*
X303170D01*
Y209467D01*
X303141D01*
Y209496D01*
X303111D01*
Y209526D01*
X303081D01*
Y209556D01*
X303052D01*
Y209585D01*
X303022D01*
Y209645D01*
X302993D01*
Y209674D01*
X302963D01*
Y209704D01*
X302933D01*
Y209733D01*
X302904D01*
Y209793D01*
X302874D01*
Y209822D01*
X302844D01*
Y209852D01*
X302815D01*
Y209881D01*
X302785D01*
Y209911D01*
X302755D01*
Y209970D01*
X302726D01*
Y210000D01*
X302696D01*
Y210030D01*
X302667D01*
Y210059D01*
X302637D01*
Y210119D01*
X302607D01*
Y210148D01*
X302578D01*
Y210178D01*
X302548D01*
Y210207D01*
X302519D01*
Y210237D01*
X302489D01*
Y210296D01*
X302459D01*
Y210326D01*
X302430D01*
Y210356D01*
X302400D01*
Y210385D01*
X302370D01*
Y210444D01*
X302341D01*
Y210474D01*
X302311D01*
Y210504D01*
X302281D01*
Y210533D01*
X302252D01*
Y210593D01*
X302222D01*
Y210622D01*
X302193D01*
Y210652D01*
X302163D01*
Y210682D01*
X302133D01*
Y204607D01*
X302104D01*
Y204519D01*
X302074D01*
Y204489D01*
X302044D01*
Y204459D01*
X302015D01*
Y204430D01*
X301985D01*
Y204400D01*
X301956D01*
Y204370D01*
X301896D01*
Y204341D01*
X301837D01*
Y204311D01*
X300622D01*
Y204341D01*
X300504D01*
Y204370D01*
X300415D01*
Y204400D01*
X300356D01*
Y204430D01*
X300296D01*
Y204459D01*
X300267D01*
Y204489D01*
X300237D01*
Y204519D01*
X300178D01*
Y204548D01*
X300148D01*
Y204578D01*
X300118D01*
Y204607D01*
X300059D01*
Y204637D01*
X300030D01*
Y204667D01*
X300000D01*
Y204696D01*
X299941D01*
Y204726D01*
X299911D01*
Y204756D01*
X299882D01*
Y204785D01*
X299852D01*
Y204815D01*
X299793D01*
Y204844D01*
X299763D01*
Y204874D01*
X299733D01*
Y204904D01*
X299704D01*
Y204933D01*
X299644D01*
Y204963D01*
X299615D01*
Y204993D01*
X299585D01*
Y205022D01*
X299526D01*
Y205052D01*
X299496D01*
Y205082D01*
X299467D01*
Y205111D01*
X299437D01*
Y205141D01*
X299378D01*
Y205170D01*
X299348D01*
Y205200D01*
X299319D01*
Y205230D01*
X299259D01*
Y205259D01*
X299230D01*
Y205289D01*
X299200D01*
Y205318D01*
X299170D01*
Y205348D01*
X299111D01*
Y205378D01*
X299081D01*
Y205407D01*
X299052D01*
Y205437D01*
X298993D01*
Y205467D01*
X298963D01*
Y205496D01*
X298933D01*
Y205526D01*
X298904D01*
Y205556D01*
X298844D01*
Y205585D01*
X298815D01*
Y205615D01*
X298785D01*
Y205644D01*
X298726D01*
Y205674D01*
X298696D01*
Y205704D01*
X298667D01*
Y205733D01*
X298607D01*
Y205763D01*
X298578D01*
Y205793D01*
X298548D01*
Y205822D01*
X298518D01*
Y205852D01*
X298459D01*
Y205882D01*
X298430D01*
Y205911D01*
X298400D01*
Y205941D01*
X298341D01*
Y205970D01*
X298311D01*
Y206000D01*
X298282D01*
Y206030D01*
X298252D01*
Y206059D01*
X298193D01*
Y206089D01*
X298163D01*
Y206118D01*
X298133D01*
Y206148D01*
X298104D01*
Y206178D01*
X298044D01*
Y206207D01*
X298015D01*
Y206237D01*
X297985D01*
Y206267D01*
X297926D01*
Y206296D01*
X297896D01*
Y206326D01*
X297867D01*
Y206356D01*
X297807D01*
Y206385D01*
X297778D01*
Y206415D01*
X297748D01*
Y206445D01*
X297719D01*
Y206474D01*
X297659D01*
Y206504D01*
X297630D01*
Y206533D01*
X297600D01*
Y206563D01*
X297541D01*
Y206593D01*
X297511D01*
Y206622D01*
X297481D01*
Y206652D01*
X297422D01*
Y206681D01*
X297393D01*
Y206711D01*
X297363D01*
Y206741D01*
X297333D01*
Y206770D01*
X297274D01*
Y206800D01*
X297244D01*
Y206830D01*
X297215D01*
Y206859D01*
X297185D01*
Y206889D01*
X297126D01*
Y206919D01*
X297096D01*
Y206948D01*
X297067D01*
Y206978D01*
X297007D01*
Y207007D01*
X296978D01*
Y207037D01*
X296948D01*
Y207067D01*
X296919D01*
Y207096D01*
X296859D01*
Y207126D01*
X296830D01*
Y207156D01*
X296800D01*
Y207185D01*
X296741D01*
Y207215D01*
X296711D01*
Y207244D01*
X296681D01*
Y207274D01*
X296652D01*
Y207304D01*
X296593D01*
Y207333D01*
X296563D01*
Y207363D01*
X296533D01*
Y207393D01*
X296474D01*
Y207422D01*
X296444D01*
Y207452D01*
X296415D01*
Y207482D01*
X296385D01*
Y207511D01*
X296326D01*
Y207541D01*
X296296D01*
Y207570D01*
X296267D01*
Y207600D01*
X296207D01*
Y207630D01*
X296178D01*
Y207659D01*
X296148D01*
Y207689D01*
X296118D01*
Y207718D01*
X296059D01*
Y207748D01*
X296030D01*
Y207778D01*
X296000D01*
Y207807D01*
X295941D01*
Y204548D01*
X295911D01*
Y204489D01*
X295882D01*
Y204459D01*
X295852D01*
Y204430D01*
X295822D01*
Y204400D01*
X295763D01*
Y204370D01*
X295704D01*
Y204341D01*
X295615D01*
Y204311D01*
X294785D01*
Y204341D01*
X294696D01*
Y204370D01*
X294637D01*
Y204400D01*
X294607D01*
Y204430D01*
X294578D01*
Y204459D01*
X294548D01*
Y204489D01*
X294518D01*
Y204548D01*
X294489D01*
Y212756D01*
X294518D01*
Y212815D01*
X294548D01*
Y212844D01*
X294578D01*
Y212874D01*
X294607D01*
Y212904D01*
X294667D01*
Y212933D01*
X294696D01*
Y212963D01*
X294785D01*
Y212993D01*
X295615D01*
Y212963D01*
X295704D01*
Y212933D01*
X295763D01*
Y212904D01*
X295822D01*
Y212874D01*
X295852D01*
Y212844D01*
X295882D01*
Y212785D01*
X295911D01*
Y212726D01*
X295941D01*
Y209793D01*
X295970D01*
Y209822D01*
X296030D01*
Y209852D01*
X296059D01*
Y209881D01*
X296089D01*
Y209911D01*
X296118D01*
Y209941D01*
X296178D01*
Y209970D01*
X296207D01*
Y210000D01*
X296267D01*
Y210030D01*
X296296D01*
Y210059D01*
X296326D01*
Y210089D01*
X296385D01*
Y210119D01*
X296415D01*
Y210148D01*
X296444D01*
Y210178D01*
X296504D01*
Y210207D01*
X296533D01*
Y210237D01*
X296563D01*
Y210267D01*
X296622D01*
Y210296D01*
X296652D01*
Y210326D01*
X296681D01*
Y210356D01*
X296741D01*
Y210385D01*
X296770D01*
Y210415D01*
X296800D01*
Y210444D01*
X296859D01*
Y210474D01*
X296889D01*
Y210504D01*
X296919D01*
Y210533D01*
X296978D01*
Y210563D01*
X297007D01*
Y210593D01*
X297037D01*
Y210622D01*
X297096D01*
Y210652D01*
X297126D01*
Y210682D01*
X297155D01*
Y210711D01*
X297215D01*
Y210741D01*
X297244D01*
Y210770D01*
X297274D01*
Y210800D01*
X297333D01*
Y210830D01*
X297363D01*
Y210859D01*
X297393D01*
Y210889D01*
X297452D01*
Y210918D01*
X297481D01*
Y210948D01*
X297511D01*
Y210978D01*
X297570D01*
Y211007D01*
X297600D01*
Y211037D01*
X297630D01*
Y211067D01*
X297689D01*
Y211096D01*
X297719D01*
Y211126D01*
X297748D01*
Y211156D01*
X297807D01*
Y211185D01*
X297837D01*
Y211215D01*
X297867D01*
Y211245D01*
X297926D01*
Y211274D01*
X297955D01*
Y211304D01*
X297985D01*
Y211333D01*
X298044D01*
Y211363D01*
X298074D01*
Y211393D01*
X298133D01*
Y211422D01*
X298163D01*
Y211452D01*
X298193D01*
Y211481D01*
X298222D01*
Y211511D01*
X298282D01*
Y211541D01*
X298311D01*
Y211570D01*
X298341D01*
Y211600D01*
X298400D01*
Y211630D01*
X298430D01*
Y211659D01*
X298489D01*
Y211689D01*
X298518D01*
Y211719D01*
X298548D01*
Y211748D01*
X298607D01*
Y211778D01*
X298637D01*
Y211807D01*
X298667D01*
Y211837D01*
X298726D01*
Y211867D01*
X298756D01*
Y211896D01*
X298785D01*
Y211926D01*
X298815D01*
Y211956D01*
X298874D01*
Y211985D01*
X298904D01*
Y212015D01*
X298963D01*
Y212045D01*
X298993D01*
Y212074D01*
X299022D01*
Y212104D01*
X299081D01*
Y212133D01*
X299111D01*
Y212163D01*
X299141D01*
Y212193D01*
X299200D01*
Y212222D01*
X299230D01*
Y212252D01*
X299259D01*
Y212281D01*
X299319D01*
Y212311D01*
X299348D01*
Y212341D01*
X299378D01*
Y212370D01*
X299437D01*
Y212400D01*
X299467D01*
Y212430D01*
X299496D01*
Y212459D01*
X299555D01*
Y212489D01*
X299585D01*
Y212519D01*
X299615D01*
Y212548D01*
X299674D01*
Y212578D01*
X299704D01*
Y212607D01*
X299733D01*
Y212637D01*
X299793D01*
Y212667D01*
X299822D01*
Y212696D01*
X299852D01*
Y212726D01*
X299911D01*
Y212756D01*
X299941D01*
Y212785D01*
X299970D01*
Y212815D01*
X300030D01*
Y212844D01*
X300059D01*
Y212874D01*
X300118D01*
Y212904D01*
X300178D01*
Y212933D01*
X300267D01*
Y212963D01*
X300385D01*
Y212993D01*
X301748D01*
Y212963D01*
X301837D01*
Y212933D01*
X301896D01*
Y212904D01*
X301956D01*
Y212874D01*
X301985D01*
Y212844D01*
X302015D01*
Y212815D01*
X302044D01*
Y212785D01*
X302104D01*
Y212756D01*
X302133D01*
Y212696D01*
X302163D01*
Y212667D01*
X302193D01*
Y212637D01*
X302222D01*
Y212607D01*
X302252D01*
Y212578D01*
X302281D01*
Y212519D01*
X302311D01*
Y212489D01*
X302341D01*
Y212459D01*
X302370D01*
Y212430D01*
X302400D01*
Y212400D01*
X302430D01*
Y212341D01*
X302459D01*
Y212311D01*
X302489D01*
Y212281D01*
X302519D01*
Y212252D01*
X302548D01*
Y212193D01*
X302578D01*
Y212163D01*
X302607D01*
Y212133D01*
X302637D01*
Y212104D01*
X302667D01*
Y212045D01*
X302696D01*
Y212015D01*
X302726D01*
Y211985D01*
X302755D01*
Y211956D01*
X302785D01*
Y211926D01*
X302815D01*
Y211867D01*
X302844D01*
Y211837D01*
X302874D01*
Y211807D01*
X302904D01*
Y211778D01*
X302933D01*
Y211719D01*
X302963D01*
Y211689D01*
X302993D01*
Y211659D01*
X303022D01*
Y211630D01*
X303052D01*
Y211600D01*
X303081D01*
Y211541D01*
X303111D01*
Y211511D01*
X303141D01*
Y211481D01*
X303170D01*
Y211452D01*
X303200D01*
Y211422D01*
X303230D01*
Y211363D01*
X303259D01*
Y211333D01*
X303289D01*
Y211304D01*
X303319D01*
Y211274D01*
X303348D01*
Y211215D01*
X303378D01*
Y211185D01*
X303407D01*
Y211156D01*
X303437D01*
Y211126D01*
X303467D01*
Y211067D01*
X303496D01*
Y211037D01*
X303526D01*
Y211007D01*
X303555D01*
Y210978D01*
X303585D01*
Y210948D01*
X303615D01*
Y210889D01*
X303644D01*
Y210859D01*
X303674D01*
Y210830D01*
X303704D01*
Y210800D01*
X303733D01*
Y210741D01*
X303763D01*
Y210711D01*
X303793D01*
Y210682D01*
X303822D01*
Y210652D01*
X303852D01*
Y210593D01*
X303882D01*
Y210563D01*
X303911D01*
Y210533D01*
X303941D01*
Y210504D01*
X303970D01*
Y210474D01*
X304000D01*
Y210415D01*
X304030D01*
Y210385D01*
X304059D01*
Y210356D01*
X304089D01*
Y210326D01*
X304118D01*
Y210296D01*
X304148D01*
Y210237D01*
X304178D01*
Y210207D01*
X304207D01*
Y210178D01*
X304237D01*
Y210148D01*
X304267D01*
Y210089D01*
X304296D01*
Y210059D01*
X304326D01*
Y210030D01*
X304356D01*
Y210000D01*
X304385D01*
Y209941D01*
X304415D01*
Y209911D01*
X304444D01*
Y209881D01*
X304474D01*
Y209852D01*
X304504D01*
Y209822D01*
X304533D01*
Y209763D01*
X304563D01*
Y209733D01*
X304593D01*
Y209704D01*
X304622D01*
Y209674D01*
X304652D01*
Y209615D01*
X304681D01*
Y209585D01*
X304711D01*
Y209556D01*
X304741D01*
Y209526D01*
X304770D01*
Y209467D01*
X304800D01*
Y209437D01*
X304830D01*
Y209407D01*
X304859D01*
Y209378D01*
X304889D01*
Y209348D01*
X304919D01*
Y209289D01*
X304948D01*
Y209259D01*
X304978D01*
Y209230D01*
X305007D01*
Y209200D01*
X305037D01*
Y209141D01*
X305067D01*
Y209111D01*
X305096D01*
Y209082D01*
X305126D01*
Y209052D01*
X305155D01*
Y209022D01*
X305185D01*
Y208963D01*
X305215D01*
Y208933D01*
X305244D01*
Y208904D01*
X305274D01*
Y208874D01*
X305304D01*
Y208844D01*
X305333D01*
Y208785D01*
X305363D01*
Y208756D01*
X305393D01*
Y208726D01*
X305422D01*
Y208696D01*
X305452D01*
Y208637D01*
X305482D01*
Y208607D01*
X305511D01*
Y208578D01*
X305541D01*
Y208548D01*
X305570D01*
Y208489D01*
X305600D01*
Y208459D01*
X305630D01*
Y208430D01*
X305659D01*
Y208400D01*
X305689D01*
Y208370D01*
X305718D01*
Y208311D01*
X305748D01*
Y208281D01*
X305778D01*
Y208252D01*
X305807D01*
Y208222D01*
X305837D01*
Y208163D01*
X305867D01*
Y208133D01*
X305896D01*
Y208104D01*
X305926D01*
Y208074D01*
X305956D01*
Y208015D01*
X305985D01*
Y207985D01*
X306015D01*
Y207956D01*
X306044D01*
Y207926D01*
X306074D01*
Y207896D01*
X306104D01*
Y207837D01*
X306133D01*
Y207807D01*
X306163D01*
Y207778D01*
X306193D01*
Y207748D01*
X306222D01*
Y207689D01*
X306252D01*
Y207659D01*
X306281D01*
Y207630D01*
X306311D01*
Y207600D01*
X306341D01*
Y207570D01*
X306370D01*
Y207511D01*
X306400D01*
Y207482D01*
X306430D01*
Y207452D01*
X306459D01*
Y207422D01*
X306489D01*
Y207393D01*
X306519D01*
Y207333D01*
X306548D01*
Y207304D01*
X306578D01*
Y207274D01*
X306607D01*
Y207244D01*
X306637D01*
Y207185D01*
X306667D01*
Y207156D01*
X306696D01*
Y207126D01*
X306726D01*
Y207096D01*
X306755D01*
Y207037D01*
X306785D01*
Y207007D01*
X306815D01*
Y206978D01*
X306844D01*
Y206948D01*
X306874D01*
Y206919D01*
X306904D01*
Y206859D01*
X306933D01*
Y206830D01*
X306963D01*
Y206800D01*
X306993D01*
Y206770D01*
X307022D01*
Y206711D01*
X307052D01*
Y206681D01*
X307082D01*
Y206652D01*
X307111D01*
Y206622D01*
X307141D01*
Y212726D01*
X307170D01*
Y212785D01*
X307200D01*
Y212844D01*
X307230D01*
Y212874D01*
X307289D01*
Y212904D01*
X307318D01*
Y212933D01*
X307378D01*
Y212963D01*
X307467D01*
Y212993D01*
X313304D01*
Y212963D01*
D02*
G37*
%LPC*%
G36*
X300652Y211748D02*
X300622D01*
Y211719D01*
X300563D01*
Y211689D01*
X300533D01*
Y211659D01*
X300504D01*
Y211630D01*
X300444D01*
Y211600D01*
X300415D01*
Y211570D01*
X300356D01*
Y211541D01*
X300326D01*
Y211511D01*
X300296D01*
Y211481D01*
X300237D01*
Y211452D01*
X300207D01*
Y211422D01*
X300178D01*
Y211393D01*
X300148D01*
Y211363D01*
X300089D01*
Y211333D01*
X300059D01*
Y211304D01*
X300000D01*
Y211274D01*
X299970D01*
Y211245D01*
X299941D01*
Y211215D01*
X299882D01*
Y211185D01*
X299852D01*
Y211156D01*
X299822D01*
Y211126D01*
X299763D01*
Y211096D01*
X299733D01*
Y211067D01*
X299704D01*
Y211037D01*
X299644D01*
Y211007D01*
X299615D01*
Y210978D01*
X299585D01*
Y210948D01*
X299555D01*
Y210918D01*
X299496D01*
Y210889D01*
X299467D01*
Y210859D01*
X299407D01*
Y210830D01*
X299378D01*
Y210800D01*
X299348D01*
Y210770D01*
X299289D01*
Y210741D01*
X299259D01*
Y210711D01*
X299230D01*
Y210682D01*
X299170D01*
Y210652D01*
X299141D01*
Y210622D01*
X299111D01*
Y210593D01*
X299052D01*
Y210563D01*
X299022D01*
Y210533D01*
X298993D01*
Y210504D01*
X298933D01*
Y210474D01*
X298904D01*
Y210444D01*
X298874D01*
Y210415D01*
X298815D01*
Y210385D01*
X298785D01*
Y210356D01*
X298756D01*
Y210326D01*
X298696D01*
Y210296D01*
X298667D01*
Y210267D01*
X298637D01*
Y210237D01*
X298578D01*
Y210207D01*
X298548D01*
Y210178D01*
X298518D01*
Y210148D01*
X298459D01*
Y210119D01*
X298430D01*
Y210089D01*
X298400D01*
Y210059D01*
X298341D01*
Y210030D01*
X298311D01*
Y210000D01*
X298282D01*
Y209970D01*
X298222D01*
Y209941D01*
X298193D01*
Y209911D01*
X298163D01*
Y209881D01*
X298104D01*
Y209852D01*
X298074D01*
Y209822D01*
X298044D01*
Y209793D01*
X297985D01*
Y209763D01*
X297955D01*
Y209733D01*
X297926D01*
Y209704D01*
X297867D01*
Y209674D01*
X297837D01*
Y209645D01*
X297807D01*
Y209615D01*
X297748D01*
Y209585D01*
X297719D01*
Y209556D01*
X297689D01*
Y209526D01*
X297630D01*
Y209496D01*
X297600D01*
Y209467D01*
X297570D01*
Y209437D01*
X297511D01*
Y209407D01*
X297481D01*
Y209378D01*
X297452D01*
Y209348D01*
X297393D01*
Y209318D01*
X297363D01*
Y209289D01*
X297333D01*
Y209259D01*
X297274D01*
Y209230D01*
X297244D01*
Y209200D01*
X297215D01*
Y209170D01*
X297155D01*
Y209141D01*
X297126D01*
Y209111D01*
X297096D01*
Y209082D01*
X297037D01*
Y209052D01*
X297007D01*
Y209022D01*
X296978D01*
Y208993D01*
X296919D01*
Y208963D01*
X296889D01*
Y208933D01*
X296859D01*
Y208904D01*
X296800D01*
Y208874D01*
X296770D01*
Y208844D01*
X296741D01*
Y208815D01*
X296770D01*
Y208785D01*
X296830D01*
Y208756D01*
X296859D01*
Y208726D01*
X296889D01*
Y208696D01*
X296948D01*
Y208667D01*
X296978D01*
Y208637D01*
X297007D01*
Y208607D01*
X297067D01*
Y208578D01*
X297096D01*
Y208548D01*
X297126D01*
Y208519D01*
X297155D01*
Y208489D01*
X297215D01*
Y208459D01*
X297244D01*
Y208430D01*
X297274D01*
Y208400D01*
X297333D01*
Y208370D01*
X297363D01*
Y208341D01*
X297393D01*
Y208311D01*
X297422D01*
Y208281D01*
X297481D01*
Y208252D01*
X297511D01*
Y208222D01*
X297541D01*
Y208193D01*
X297600D01*
Y208163D01*
X297630D01*
Y208133D01*
X297659D01*
Y208104D01*
X297719D01*
Y208074D01*
X297748D01*
Y208045D01*
X297778D01*
Y208015D01*
X297807D01*
Y207985D01*
X297867D01*
Y207956D01*
X297896D01*
Y207926D01*
X297926D01*
Y207896D01*
X297955D01*
Y207867D01*
X298015D01*
Y207837D01*
X298044D01*
Y207807D01*
X298074D01*
Y207778D01*
X298133D01*
Y207748D01*
X298163D01*
Y207718D01*
X298193D01*
Y207689D01*
X298252D01*
Y207659D01*
X298282D01*
Y207630D01*
X298311D01*
Y207600D01*
X298341D01*
Y207570D01*
X298400D01*
Y207541D01*
X298430D01*
Y207511D01*
X298459D01*
Y207482D01*
X298518D01*
Y207452D01*
X298548D01*
Y207422D01*
X298578D01*
Y207393D01*
X298607D01*
Y207363D01*
X298667D01*
Y207333D01*
X298696D01*
Y207304D01*
X298726D01*
Y207274D01*
X298785D01*
Y207244D01*
X298815D01*
Y207215D01*
X298844D01*
Y207185D01*
X298874D01*
Y207156D01*
X298933D01*
Y207126D01*
X298963D01*
Y207096D01*
X298993D01*
Y207067D01*
X299052D01*
Y207037D01*
X299081D01*
Y207007D01*
X299111D01*
Y206978D01*
X299141D01*
Y206948D01*
X299200D01*
Y206919D01*
X299230D01*
Y206889D01*
X299259D01*
Y206859D01*
X299319D01*
Y206830D01*
X299348D01*
Y206800D01*
X299378D01*
Y206770D01*
X299407D01*
Y206741D01*
X299467D01*
Y206711D01*
X299496D01*
Y206681D01*
X299526D01*
Y206652D01*
X299585D01*
Y206622D01*
X299615D01*
Y206593D01*
X299644D01*
Y206563D01*
X299674D01*
Y206533D01*
X299733D01*
Y206504D01*
X299763D01*
Y206474D01*
X299793D01*
Y206445D01*
X299852D01*
Y206415D01*
X299882D01*
Y206385D01*
X299911D01*
Y206356D01*
X299970D01*
Y206326D01*
X300000D01*
Y206296D01*
X300030D01*
Y206267D01*
X300059D01*
Y206237D01*
X300118D01*
Y206207D01*
X300148D01*
Y206178D01*
X300178D01*
Y206148D01*
X300237D01*
Y206118D01*
X300267D01*
Y206089D01*
X300296D01*
Y206059D01*
X300326D01*
Y206030D01*
X300385D01*
Y206000D01*
X300415D01*
Y205970D01*
X300444D01*
Y205941D01*
X300504D01*
Y205911D01*
X300533D01*
Y205882D01*
X300563D01*
Y205852D01*
X300593D01*
Y205822D01*
X300652D01*
Y211748D01*
D02*
G37*
%LPD*%
D10*
X444252Y214744D02*
Y225256D01*
Y214744D02*
X455748D01*
Y225256D01*
X444252D02*
X455748D01*
X423992Y241241D02*
X426866D01*
X423992Y238682D02*
Y241241D01*
X432614D02*
X435488D01*
Y238682D02*
Y241241D01*
X404917Y238244D02*
X407083D01*
X411905Y240075D02*
Y243756D01*
X400095D02*
X403342D01*
X408658D02*
X411905D01*
X400095Y240075D02*
Y243756D01*
X405606Y222461D02*
X406394D01*
X405606Y217539D02*
X406394D01*
X378992Y263241D02*
X381866D01*
X378992Y260682D02*
Y263241D01*
X387614D02*
X390488D01*
Y260682D02*
Y263241D01*
X363657Y282221D02*
X365823D01*
X370646Y284051D02*
Y287732D01*
X358835D02*
X362083D01*
X367398D02*
X370646D01*
X358835Y284051D02*
Y287732D01*
X347461Y285606D02*
Y286394D01*
X342539Y285606D02*
Y286394D01*
X318461Y285543D02*
Y286331D01*
X313539Y285543D02*
Y286331D01*
X314917Y263244D02*
X317083D01*
X321905Y265075D02*
Y268756D01*
X310094D02*
X313342D01*
X318657D02*
X321905D01*
X310094Y265075D02*
Y268756D01*
X358461Y261543D02*
Y262331D01*
X353539Y261543D02*
Y262331D01*
X382606Y225539D02*
X383394D01*
X382606Y230461D02*
X383394D01*
X363461Y235543D02*
Y236331D01*
X358539Y235543D02*
Y236331D01*
X359917Y211244D02*
X362083D01*
X366905Y213075D02*
Y216756D01*
X355095D02*
X358343D01*
X363657D02*
X366905D01*
X355095Y213075D02*
Y216756D01*
X319917Y244244D02*
X322083D01*
X326905Y246075D02*
Y249756D01*
X315094D02*
X318342D01*
X323657D02*
X326905D01*
X315094Y246075D02*
Y249756D01*
X335917Y232244D02*
X338083D01*
X342905Y234075D02*
Y237756D01*
X331095D02*
X334343D01*
X339657D02*
X342905D01*
X331095Y234075D02*
Y237756D01*
X444252Y254744D02*
Y265256D01*
Y254744D02*
X455748D01*
Y265256D01*
X444252D02*
X455748D01*
X444252Y284744D02*
Y295256D01*
Y284744D02*
X455748D01*
Y295256D01*
X444252D02*
X455748D01*
X444252Y324744D02*
Y335256D01*
Y324744D02*
X455748D01*
Y335256D01*
X444252D02*
X455748D01*
X407543Y282461D02*
X408331D01*
X407543Y277539D02*
X408331D01*
X429177Y321220D02*
X431343D01*
X436165Y323051D02*
Y326732D01*
X424354D02*
X427602D01*
X432917D02*
X436165D01*
X424354Y323051D02*
Y326732D01*
X413461Y323543D02*
Y324331D01*
X408539Y323543D02*
Y324331D01*
X387177Y321220D02*
X389342D01*
X394165Y323051D02*
Y326732D01*
X382354D02*
X385602D01*
X390917D02*
X394165D01*
X382354Y323051D02*
Y326732D01*
X368461Y323543D02*
Y324331D01*
X363539Y323543D02*
Y324331D01*
X304252Y344744D02*
Y355256D01*
Y344744D02*
X315748D01*
Y355256D01*
X304252D02*
X315748D01*
X344252Y344744D02*
Y355256D01*
Y344744D02*
X355748D01*
Y355256D01*
X344252D02*
X355748D01*
X340917Y308244D02*
X343083D01*
X347905Y310075D02*
Y313756D01*
X336094D02*
X339342D01*
X344657D02*
X347905D01*
X336094Y310075D02*
Y313756D01*
X328461Y312606D02*
Y313394D01*
X323539Y312606D02*
Y313394D01*
X270461Y322606D02*
Y323394D01*
X265539Y322606D02*
Y323394D01*
X282658Y321220D02*
X284823D01*
X289646Y323051D02*
Y326732D01*
X277835D02*
X281083D01*
X286398D02*
X289646D01*
X277835Y323051D02*
Y326732D01*
X299461Y313606D02*
Y314394D01*
X294539Y313606D02*
Y314394D01*
X281917Y293268D02*
X284083D01*
X288906Y295098D02*
Y298780D01*
X277095D02*
X280343D01*
X285658D02*
X288906D01*
X277095Y295098D02*
Y298780D01*
X311658Y301220D02*
X313823D01*
X318646Y303051D02*
Y306732D01*
X306835D02*
X310083D01*
X315398D02*
X318646D01*
X306835Y303051D02*
Y306732D01*
X264252Y264744D02*
Y275256D01*
Y264744D02*
X275748D01*
Y275256D01*
X264252D02*
X275748D01*
X264252Y214744D02*
Y225256D01*
Y214744D02*
X275748D01*
Y225256D01*
X264252D02*
X275748D01*
X301177Y232221D02*
X303343D01*
X308165Y234051D02*
Y237732D01*
X296354D02*
X299602D01*
X304917D02*
X308165D01*
X296354Y234051D02*
Y237732D01*
X432461Y215606D02*
Y216394D01*
X427539Y215606D02*
Y216394D01*
X393461Y295606D02*
Y296394D01*
X388539Y295606D02*
Y296394D01*
X338539Y210606D02*
Y211394D01*
X343461Y210606D02*
Y211394D01*
D11*
X387000Y357997D02*
Y350000D01*
X392332D01*
X394997D02*
Y357997D01*
X397663Y355332D01*
X400329Y357997D01*
Y350000D01*
X402995Y357997D02*
X408326D01*
Y356664D01*
X402995Y351333D01*
Y350000D01*
X410992Y356664D02*
X412325Y357997D01*
X414991D01*
X416324Y356664D01*
Y351333D01*
X414991Y350000D01*
X412325D01*
X410992Y351333D01*
Y356664D01*
X418990Y351333D02*
X420323Y350000D01*
X422988D01*
X424321Y351333D01*
Y356664D01*
X422988Y357997D01*
X420323D01*
X418990Y356664D01*
Y355332D01*
X420323Y353999D01*
X424321D01*
X445002Y233999D02*
Y230000D01*
X447001Y228001D01*
X449000Y230000D01*
Y233999D01*
X451000Y231000D02*
X454998D01*
X428750Y248000D02*
Y250000D01*
X428251Y250500D01*
X427251D01*
X426751Y250000D01*
Y248000D01*
X427251Y247500D01*
X428251D01*
X427751Y248500D02*
X428750Y247500D01*
X428251D02*
X428750Y248000D01*
X429750Y247500D02*
X430750D01*
X430250D01*
Y250500D01*
X429750Y250000D01*
X432249Y247500D02*
X433249D01*
X432749D01*
Y250500D01*
X432249Y250000D01*
X404251Y249000D02*
Y251000D01*
X403751Y251500D01*
X402751D01*
X402251Y251000D01*
Y249000D01*
X402751Y248500D01*
X403751D01*
X403251Y249500D02*
X404251Y248500D01*
X403751D02*
X404251Y249000D01*
X405250Y248500D02*
X406250D01*
X405750D01*
Y251500D01*
X405250Y251000D01*
X407749D02*
X408249Y251500D01*
X409249D01*
X409749Y251000D01*
Y250500D01*
X409249Y250000D01*
X408749D01*
X409249D01*
X409749Y249500D01*
Y249000D01*
X409249Y248500D01*
X408249D01*
X407749Y249000D01*
X401251Y226501D02*
Y229500D01*
X402751D01*
X403251Y229000D01*
Y228000D01*
X402751Y227500D01*
X401251D01*
X402251D02*
X403251Y226501D01*
X404250D02*
X405250D01*
X404750D01*
Y229500D01*
X404250Y229000D01*
X406749D02*
X407249Y229500D01*
X408249D01*
X408749Y229000D01*
Y228500D01*
X408249Y228000D01*
X407749D01*
X408249D01*
X408749Y227500D01*
Y227000D01*
X408249Y226501D01*
X407249D01*
X406749Y227000D01*
X383500Y270000D02*
Y272000D01*
X383000Y272499D01*
X382001D01*
X381501Y272000D01*
Y270000D01*
X382001Y269500D01*
X383000D01*
X382501Y270500D02*
X383500Y269500D01*
X383000D02*
X383500Y270000D01*
X384500D02*
X385000Y269500D01*
X385999D01*
X386499Y270000D01*
Y272000D01*
X385999Y272499D01*
X385000D01*
X384500Y272000D01*
Y271500D01*
X385000Y271000D01*
X386499D01*
X364500Y293000D02*
Y295000D01*
X364000Y295499D01*
X363001D01*
X362501Y295000D01*
Y293000D01*
X363001Y292500D01*
X364000D01*
X363500Y293500D02*
X364500Y292500D01*
X364000D02*
X364500Y293000D01*
X365500Y295499D02*
X367499D01*
Y295000D01*
X365500Y293000D01*
Y292500D01*
X338499Y283251D02*
X335501D01*
Y284751D01*
X336000Y285251D01*
X337000D01*
X337500Y284751D01*
Y283251D01*
Y284251D02*
X338499Y285251D01*
Y286250D02*
Y287250D01*
Y286750D01*
X335501D01*
X336000Y286250D01*
Y288749D02*
X335501Y289249D01*
Y290249D01*
X336000Y290749D01*
X338000D01*
X338499Y290249D01*
Y289249D01*
X338000Y288749D01*
X336000D01*
X325500Y284501D02*
X322500D01*
Y286000D01*
X323000Y286500D01*
X324000D01*
X324500Y286000D01*
Y284501D01*
Y285501D02*
X325500Y286500D01*
X325000Y287500D02*
X325500Y288000D01*
Y288999D01*
X325000Y289499D01*
X323000D01*
X322500Y288999D01*
Y288000D01*
X323000Y287500D01*
X323500D01*
X324000Y288000D01*
Y289499D01*
X314500Y274000D02*
Y276000D01*
X314000Y276500D01*
X313001D01*
X312501Y276000D01*
Y274000D01*
X313001Y273500D01*
X314000D01*
X313500Y274500D02*
X314500Y273500D01*
X314000D02*
X314500Y274000D01*
X315500Y276000D02*
X316000Y276500D01*
X316999D01*
X317499Y276000D01*
Y275500D01*
X316999Y275000D01*
X317499Y274500D01*
Y274000D01*
X316999Y273500D01*
X316000D01*
X315500Y274000D01*
Y274500D01*
X316000Y275000D01*
X315500Y275500D01*
Y276000D01*
X316000Y275000D02*
X316999D01*
X349500Y258751D02*
X346500D01*
Y260251D01*
X347000Y260750D01*
X348000D01*
X348500Y260251D01*
Y258751D01*
Y259751D02*
X349500Y260750D01*
Y261750D02*
Y262750D01*
Y262250D01*
X346500D01*
X347000Y261750D01*
X349500Y264249D02*
Y265249D01*
Y264749D01*
X346500D01*
X347000Y264249D01*
X380501Y234501D02*
Y237499D01*
X382000D01*
X382500Y237000D01*
Y236000D01*
X382000Y235500D01*
X380501D01*
X381501D02*
X382500Y234501D01*
X383500Y237000D02*
X384000Y237499D01*
X384999D01*
X385499Y237000D01*
Y236500D01*
X384999Y236000D01*
X385499Y235500D01*
Y235000D01*
X384999Y234501D01*
X384000D01*
X383500Y235000D01*
Y235500D01*
X384000Y236000D01*
X383500Y236500D01*
Y237000D01*
X384000Y236000D02*
X384999D01*
X355500Y232251D02*
X352501D01*
Y233751D01*
X353000Y234251D01*
X354000D01*
X354500Y233751D01*
Y232251D01*
Y233251D02*
X355500Y234251D01*
Y235250D02*
Y236250D01*
Y235750D01*
X352501D01*
X353000Y235250D01*
X355500Y239749D02*
Y237749D01*
X353500Y239749D01*
X353000D01*
X352501Y239249D01*
Y238249D01*
X353000Y237749D01*
X359251Y222000D02*
Y224000D01*
X358751Y224500D01*
X357751D01*
X357251Y224000D01*
Y222000D01*
X357751Y221500D01*
X358751D01*
X358251Y222500D02*
X359251Y221500D01*
X358751D02*
X359251Y222000D01*
X360250Y221500D02*
X361250D01*
X360750D01*
Y224500D01*
X360250Y224000D01*
X364749Y224500D02*
X362749D01*
Y223000D01*
X363749Y223500D01*
X364249D01*
X364749Y223000D01*
Y222000D01*
X364249Y221500D01*
X363249D01*
X362749Y222000D01*
X319251Y254993D02*
Y256992D01*
X318751Y257492D01*
X317751D01*
X317251Y256992D01*
Y254993D01*
X317751Y254493D01*
X318751D01*
X318251Y255492D02*
X319251Y254493D01*
X318751D02*
X319251Y254993D01*
X320250Y254493D02*
X321250D01*
X320750D01*
Y257492D01*
X320250Y256992D01*
X322749D02*
X323249Y257492D01*
X324249D01*
X324749Y256992D01*
Y254993D01*
X324249Y254493D01*
X323249D01*
X322749Y254993D01*
Y256992D01*
X335251Y244000D02*
Y246000D01*
X334751Y246499D01*
X333751D01*
X333251Y246000D01*
Y244000D01*
X333751Y243500D01*
X334751D01*
X334251Y244500D02*
X335251Y243500D01*
X334751D02*
X335251Y244000D01*
X336250Y243500D02*
X337250D01*
X336750D01*
Y246499D01*
X336250Y246000D01*
X340249Y243500D02*
Y246499D01*
X338749Y245000D01*
X340749D01*
X448002Y273999D02*
X446002D01*
X445003Y272999D01*
Y269001D01*
X446002Y268001D01*
X448002D01*
X449001Y269001D01*
Y272999D01*
X448002Y273999D01*
X454999D02*
X451001D01*
Y271000D01*
X453000D01*
X451001D01*
Y268001D01*
X460997Y272999D02*
X459998Y273999D01*
X457998D01*
X456999Y272999D01*
Y269001D01*
X457998Y268001D01*
X459998D01*
X460997Y269001D01*
X448002Y303999D02*
X446002D01*
X445003Y302999D01*
Y299001D01*
X446002Y298001D01*
X448002D01*
X449001Y299001D01*
Y302999D01*
X448002Y303999D01*
X451001D02*
Y299001D01*
X452000Y298001D01*
X454000D01*
X454999Y299001D01*
Y303999D01*
X456999D02*
X460997D01*
X458998D01*
Y298001D01*
X445002Y343999D02*
Y340000D01*
X447001Y338001D01*
X449000Y340000D01*
Y343999D01*
X451000Y341000D02*
X454998D01*
X452999Y342999D02*
Y339001D01*
X405501Y286501D02*
Y289499D01*
X407000D01*
X407500Y289000D01*
Y288000D01*
X407000Y287500D01*
X405501D01*
X406500D02*
X407500Y286501D01*
X408500Y289499D02*
X410499D01*
Y289000D01*
X408500Y287000D01*
Y286501D01*
X429500Y333000D02*
Y335000D01*
X429000Y335500D01*
X428001D01*
X427501Y335000D01*
Y333000D01*
X428001Y332501D01*
X429000D01*
X428501Y333500D02*
X429500Y332501D01*
X429000D02*
X429500Y333000D01*
X430500Y335000D02*
X431000Y335500D01*
X431999D01*
X432499Y335000D01*
Y334500D01*
X431999Y334000D01*
X431499D01*
X431999D01*
X432499Y333500D01*
Y333000D01*
X431999Y332501D01*
X431000D01*
X430500Y333000D01*
X408501Y332501D02*
Y335500D01*
X410000D01*
X410500Y335000D01*
Y334000D01*
X410000Y333500D01*
X408501D01*
X409501D02*
X410500Y332501D01*
X411500Y335000D02*
X412000Y335500D01*
X412999D01*
X413499Y335000D01*
Y334500D01*
X412999Y334000D01*
X412500D01*
X412999D01*
X413499Y333500D01*
Y333000D01*
X412999Y332501D01*
X412000D01*
X411500Y333000D01*
X387500Y332000D02*
Y334000D01*
X387000Y334500D01*
X386001D01*
X385501Y334000D01*
Y332000D01*
X386001Y331501D01*
X387000D01*
X386501Y332500D02*
X387500Y331501D01*
X387000D02*
X387500Y332000D01*
X390499Y331501D02*
X388500D01*
X390499Y333500D01*
Y334000D01*
X389999Y334500D01*
X389000D01*
X388500Y334000D01*
X360500Y321501D02*
X357501D01*
Y323000D01*
X358000Y323500D01*
X359000D01*
X359500Y323000D01*
Y321501D01*
Y322500D02*
X360500Y323500D01*
Y326499D02*
Y324500D01*
X358500Y326499D01*
X358000D01*
X357501Y325999D01*
Y325000D01*
X358000Y324500D01*
X295504Y363999D02*
X297504D01*
X296504D01*
Y358001D01*
X295504D01*
X297504D01*
X304502Y363999D02*
X300503D01*
Y361000D01*
X302502D01*
X300503D01*
Y358001D01*
X310500Y362999D02*
X309500Y363999D01*
X307501D01*
X306501Y362999D01*
Y359001D01*
X307501Y358001D01*
X309500D01*
X310500Y359001D01*
X318497Y358001D02*
Y362000D01*
X320496Y363999D01*
X322496Y362000D01*
Y358001D01*
Y361000D01*
X318497D01*
X336504Y363999D02*
X338504D01*
X337504D01*
Y358001D01*
X336504D01*
X338504D01*
X345501Y363999D02*
X341503D01*
Y361000D01*
X343502D01*
X341503D01*
Y358001D01*
X351500Y362999D02*
X350500Y363999D01*
X348500D01*
X347501Y362999D01*
Y359001D01*
X348500Y358001D01*
X350500D01*
X351500Y359001D01*
X359497Y363999D02*
Y358001D01*
X362496D01*
X363496Y359001D01*
Y360000D01*
X362496Y361000D01*
X359497D01*
X362496D01*
X363496Y362000D01*
Y362999D01*
X362496Y363999D01*
X359497D01*
X340500Y321000D02*
Y323000D01*
X340000Y323499D01*
X339001D01*
X338501Y323000D01*
Y321000D01*
X339001Y320500D01*
X340000D01*
X339500Y321500D02*
X340500Y320500D01*
X340000D02*
X340500Y321000D01*
X343499Y323499D02*
X341500D01*
Y322000D01*
X342499Y322500D01*
X342999D01*
X343499Y322000D01*
Y321000D01*
X342999Y320500D01*
X342000D01*
X341500Y321000D01*
X321501Y322500D02*
Y325500D01*
X323000D01*
X323500Y325000D01*
Y324000D01*
X323000Y323500D01*
X321501D01*
X322500D02*
X323500Y322500D01*
X326499Y325500D02*
X324500D01*
Y324000D01*
X325500Y324500D01*
X325999D01*
X326499Y324000D01*
Y323000D01*
X325999Y322500D01*
X325000D01*
X324500Y323000D01*
X261500Y321001D02*
X258501D01*
Y322500D01*
X259000Y323000D01*
X260000D01*
X260500Y322500D01*
Y321001D01*
Y322000D02*
X261500Y323000D01*
Y324000D02*
Y324999D01*
Y324500D01*
X258501D01*
X259000Y324000D01*
X285000Y332000D02*
Y334000D01*
X284500Y334500D01*
X283501D01*
X283001Y334000D01*
Y332000D01*
X283501Y331501D01*
X284500D01*
X284000Y332500D02*
X285000Y331501D01*
X284500D02*
X285000Y332000D01*
X286000Y331501D02*
X286999D01*
X286500D01*
Y334500D01*
X286000Y334000D01*
X296501Y323500D02*
Y326500D01*
X298000D01*
X298500Y326000D01*
Y325000D01*
X298000Y324500D01*
X296501D01*
X297500D02*
X298500Y323500D01*
X300999D02*
Y326500D01*
X299500Y325000D01*
X301499D01*
X284500Y304000D02*
Y306000D01*
X284000Y306500D01*
X283001D01*
X282501Y306000D01*
Y304000D01*
X283001Y303501D01*
X284000D01*
X283501Y304500D02*
X284500Y303501D01*
X284000D02*
X284500Y304000D01*
X287499Y306500D02*
X286500Y306000D01*
X285500Y305000D01*
Y304000D01*
X286000Y303501D01*
X286999D01*
X287499Y304000D01*
Y304500D01*
X286999Y305000D01*
X285500D01*
X312500Y312000D02*
Y314000D01*
X312000Y314499D01*
X311001D01*
X310501Y314000D01*
Y312000D01*
X311001Y311501D01*
X312000D01*
X311501Y312500D02*
X312500Y311501D01*
X312000D02*
X312500Y312000D01*
X314999Y311501D02*
Y314499D01*
X313500Y313000D01*
X315499D01*
X261502Y283999D02*
X263502D01*
X262502D01*
Y278001D01*
X261502D01*
X263502D01*
X266501D02*
Y283999D01*
X270499Y278001D01*
Y283999D01*
X272499Y281000D02*
X276498D01*
X260502Y233999D02*
X262502D01*
X261502D01*
Y228001D01*
X260502D01*
X262502D01*
X265501D02*
Y233999D01*
X269499Y228001D01*
Y233999D01*
X271499Y231000D02*
X275498D01*
X273498Y232999D02*
Y229001D01*
X298251Y243000D02*
Y245000D01*
X297751Y245499D01*
X296751D01*
X296251Y245000D01*
Y243000D01*
X296751Y242500D01*
X297751D01*
X297251Y243500D02*
X298251Y242500D01*
X297751D02*
X298251Y243000D01*
X299250Y242500D02*
X300250D01*
X299750D01*
Y245499D01*
X299250Y245000D01*
X303749Y242500D02*
X301749D01*
X303749Y244500D01*
Y245000D01*
X303249Y245499D01*
X302249D01*
X301749Y245000D01*
X425251Y224500D02*
Y227500D01*
X426751D01*
X427251Y227000D01*
Y226000D01*
X426751Y225500D01*
X425251D01*
X426251D02*
X427251Y224500D01*
X428250D02*
X429250D01*
X428750D01*
Y227500D01*
X428250Y227000D01*
X432249Y224500D02*
Y227500D01*
X430749Y226000D01*
X432749D01*
X385500Y293501D02*
X382501D01*
Y295000D01*
X383000Y295500D01*
X384000D01*
X384500Y295000D01*
Y293501D01*
Y294500D02*
X385500Y295500D01*
X382501Y298499D02*
X383000Y297499D01*
X384000Y296500D01*
X385000D01*
X385500Y297000D01*
Y297999D01*
X385000Y298499D01*
X384500D01*
X384000Y297999D01*
Y296500D01*
X334500Y208251D02*
X331501D01*
Y209751D01*
X332000Y210251D01*
X333000D01*
X333500Y209751D01*
Y208251D01*
Y209251D02*
X334500Y210251D01*
Y211250D02*
Y212250D01*
Y211750D01*
X331501D01*
X332000Y211250D01*
X331501Y215749D02*
Y213749D01*
X333000D01*
X332500Y214749D01*
Y215249D01*
X333000Y215749D01*
X334000D01*
X334500Y215249D01*
Y214249D01*
X334000Y213749D01*
M02*
