G04*
G04 #@! TF.GenerationSoftware,Altium Limited,Altium Designer,23.3.1 (30)*
G04*
G04 Layer_Color=16711935*
%FSLAX25Y25*%
%MOIN*%
G70*
G04*
G04 #@! TF.SameCoordinates,585462AD-BF79-4466-854D-63341AC199BE*
G04*
G04*
G04 #@! TF.FilePolarity,Positive*
G04*
G01*
G75*
%ADD10C,0.00787*%
%ADD25C,0.00394*%
D10*
X444252Y214744D02*
Y225256D01*
Y214744D02*
X455748D01*
Y225256D01*
X444252D02*
X455748D01*
X423992Y236123D02*
X435488D01*
Y241241D01*
X423992D02*
X435488D01*
X423992Y236123D02*
Y241241D01*
X400095Y238244D02*
Y243756D01*
Y238244D02*
X411905D01*
Y243756D01*
X400095D02*
X411905D01*
X378992Y258123D02*
X390488D01*
Y263241D01*
X378992D02*
X390488D01*
X378992Y258123D02*
Y263241D01*
X358835Y282221D02*
Y287732D01*
Y282221D02*
X370646D01*
Y287732D01*
X358835D02*
X370646D01*
X310094Y263244D02*
Y268756D01*
Y263244D02*
X321905D01*
Y268756D01*
X310094D02*
X321905D01*
X355095Y211244D02*
Y216756D01*
Y211244D02*
X366905D01*
Y216756D01*
X355095D02*
X366905D01*
X315094Y244244D02*
Y249756D01*
Y244244D02*
X326905D01*
Y249756D01*
X315094D02*
X326905D01*
X331095Y232244D02*
Y237756D01*
Y232244D02*
X342905D01*
Y237756D01*
X331095D02*
X342905D01*
X444252Y254744D02*
Y265256D01*
Y254744D02*
X455748D01*
Y265256D01*
X444252D02*
X455748D01*
X444252Y284744D02*
Y295256D01*
Y284744D02*
X455748D01*
Y295256D01*
X444252D02*
X455748D01*
X444252Y324744D02*
Y335256D01*
Y324744D02*
X455748D01*
Y335256D01*
X444252D02*
X455748D01*
X424354Y321220D02*
Y326732D01*
Y321220D02*
X436165D01*
Y326732D01*
X424354D02*
X436165D01*
X382354Y321220D02*
Y326732D01*
Y321220D02*
X394165D01*
Y326732D01*
X382354D02*
X394165D01*
X304252Y344744D02*
Y355256D01*
Y344744D02*
X315748D01*
Y355256D01*
X304252D02*
X315748D01*
X344252Y344744D02*
Y355256D01*
Y344744D02*
X355748D01*
Y355256D01*
X344252D02*
X355748D01*
X336094Y308244D02*
Y313756D01*
Y308244D02*
X347905D01*
Y313756D01*
X336094D02*
X347905D01*
X277835Y321220D02*
Y326732D01*
Y321220D02*
X289646D01*
Y326732D01*
X277835D02*
X289646D01*
X277095Y293268D02*
Y298780D01*
Y293268D02*
X288906D01*
Y298780D01*
X277095D02*
X288906D01*
X306835Y301220D02*
Y306732D01*
Y301220D02*
X318646D01*
Y306732D01*
X306835D02*
X318646D01*
X264252Y264744D02*
Y275256D01*
Y264744D02*
X275748D01*
Y275256D01*
X264252D02*
X275748D01*
X264252Y214744D02*
Y225256D01*
Y214744D02*
X275748D01*
Y225256D01*
X264252D02*
X275748D01*
X296354Y232221D02*
Y237732D01*
Y232221D02*
X308165D01*
Y237732D01*
X296354D02*
X308165D01*
D25*
X401866Y222657D02*
X410134D01*
X401866Y217342D02*
X410134D01*
X401866D02*
Y222657D01*
X410134Y217342D02*
Y222657D01*
X347657Y281866D02*
Y290134D01*
X342342Y281866D02*
Y290134D01*
X347657D01*
X342342Y281866D02*
X347657D01*
X318657Y281803D02*
Y290071D01*
X313342Y281803D02*
Y290071D01*
X318657D01*
X313342Y281803D02*
X318657D01*
X358658Y257803D02*
Y266071D01*
X353343Y257803D02*
Y266071D01*
X358658D01*
X353343Y257803D02*
X358658D01*
X378866Y225342D02*
X387134D01*
X378866Y230658D02*
X387134D01*
Y225342D02*
Y230658D01*
X378866Y225342D02*
Y230658D01*
X363657Y231803D02*
Y240071D01*
X358343Y231803D02*
Y240071D01*
X363657D01*
X358343Y231803D02*
X363657D01*
X403803Y282658D02*
X412071D01*
X403803Y277343D02*
X412071D01*
X403803D02*
Y282658D01*
X412071Y277343D02*
Y282658D01*
X413658Y319803D02*
Y328071D01*
X408343Y319803D02*
Y328071D01*
X413658D01*
X408343Y319803D02*
X413658D01*
X368657D02*
Y328071D01*
X363342Y319803D02*
Y328071D01*
X368657D01*
X363342Y319803D02*
X368657D01*
X328658Y308866D02*
Y317134D01*
X323342Y308866D02*
Y317134D01*
X328658D01*
X323342Y308866D02*
X328658D01*
X270657Y318866D02*
Y327134D01*
X265342Y318866D02*
Y327134D01*
X270657D01*
X265342Y318866D02*
X270657D01*
X299658Y309866D02*
Y318134D01*
X294342Y309866D02*
Y318134D01*
X299658D01*
X294342Y309866D02*
X299658D01*
X432657Y211866D02*
Y220134D01*
X427343Y211866D02*
Y220134D01*
X432657D01*
X427343Y211866D02*
X432657D01*
X393657Y291866D02*
Y300134D01*
X388342Y291866D02*
Y300134D01*
X393657D01*
X388342Y291866D02*
X393657D01*
X338342Y206866D02*
Y215134D01*
X343657Y206866D02*
Y215134D01*
X338342Y206866D02*
X343657D01*
X338342Y215134D02*
X343657D01*
M02*
