M48
;Layer_Color=9474304
;FILE_FORMAT=2:4
INCH,LZ
;TYPE=PLATED
T1F00S00C0.0280
T2F00S00C0.0402
T3F00S00C0.1181
%
T01
X0329Y0262
X0328Y0298
X0391Y0272
X0399Y0255
X0411Y0257
X044Y028
Y023
X0411Y0312
X0299Y0299
X0305Y0284
X0299Y0253
X035Y0315
T02
X045Y022
Y026
Y029
X027Y027
Y022
X031Y035
X035
X045Y033
T03
X046Y02
X026
Y036
X046
M30
