%FSTAX23Y23*%
%MOIN*%
%SFA1B1*%

%IPPOS*%
%AMD12*
4,1,8,-0.011500,0.017500,-0.011500,-0.017500,0.000000,-0.029000,0.000000,-0.029000,0.011500,-0.017500,0.011500,0.017500,0.000000,0.029000,0.000000,0.029000,-0.011500,0.017500,0.0*
1,1,0.023020,0.000000,0.017500*
1,1,0.023020,0.000000,-0.017500*
1,1,0.023020,0.000000,-0.017500*
1,1,0.023020,0.000000,0.017500*
%
%ADD11C,0.010000*%
G04~CAMADD=12~8~0.0~0.0~580.4~230.3~115.1~0.0~15~0.0~0.0~0.0~0.0~0~0.0~0.0~0.0~0.0~0~0.0~0.0~0.0~90.0~230.0~579.0*
%ADD12D12*%
%ADD13R,0.023030X0.058040*%
%ADD14R,0.023620X0.031500*%
%ADD15R,0.047240X0.057090*%
%ADD16R,0.057090X0.047240*%
%ADD19R,0.061810X0.061810*%
%ADD22C,0.030000*%
%ADD23C,0.050000*%
%ADD24C,0.157480*%
%LNlm709_pcb-1*%
%LPD*%
G54D11*
X0352Y0232D02*
X0361D01*
X03332Y02314D02*
X03368Y0235D01*
X03332Y0231D02*
Y02314D01*
X0349Y0235D02*
X0352Y0232D01*
X03368Y0235D02*
X0349D01*
X02797Y02944D02*
X02812Y0296D01*
X0289*
X02792Y0292D02*
X02797Y02925D01*
Y02944*
X0309Y0293D02*
X03127Y02967D01*
X029Y03D02*
X0297Y0293D01*
X0309*
X02951Y02898D02*
X03155D01*
X0289Y0296D02*
X02951Y02898D01*
X0391Y0292D02*
X0392Y0291D01*
X0283Y03D02*
X029D01*
X03127Y02967D02*
Y03079D01*
X04295Y02199D02*
X043D01*
X03886Y03017D02*
X03905Y02999D01*
X0391*
G54D12*
X04297Y02423D03*
X04334Y0235D03*
X03847Y02643D03*
X03884Y0257D03*
G54D13*
X0426Y0235D03*
X0381Y0257D03*
G54D14*
X0406Y02449D03*
X04097Y0237D03*
X04022D03*
X03647Y02889D03*
X03684Y0281D03*
X0361D03*
X0316Y02699D03*
X03197Y0262D03*
X03122D03*
X0361Y02179D03*
X03647Y021D03*
X03572D03*
X0321Y02509D03*
X03247Y0243D03*
X03172D03*
X0337Y02389D03*
X03407Y0231D03*
X03332D03*
X04302Y03279D03*
X0434Y032D03*
X04265D03*
X03882Y03279D03*
X0392Y032D03*
X03845D03*
X0342Y03149D03*
X03457Y0307D03*
X03382D03*
X02837Y03279D03*
X02874Y032D03*
X028D03*
X0283Y03D03*
X02867Y0292D03*
X02792D03*
X03127Y03079D03*
X03164Y03D03*
X0309D03*
X03022Y02389D03*
X0306Y0231D03*
X02985D03*
G54D15*
X0402Y022D03*
X04099D03*
X03869Y0228D03*
X0379D03*
X0404Y028D03*
X04118D03*
G54D16*
X0345Y02899D03*
Y0282D03*
X0316Y02898D03*
Y0282D03*
X0356Y02658D03*
Y0258D03*
X0361Y02398D03*
Y0232D03*
X0411Y03278D03*
Y032D03*
X0366Y03278D03*
Y032D03*
X0326Y03169D03*
Y0309D03*
X0268Y03269D03*
Y0319D03*
X0297Y03179D03*
Y031D03*
X043Y02199D03*
Y0212D03*
X0391Y02999D03*
Y0292D03*
X0341Y0207D03*
Y02149D03*
G54D19*
X045Y022D03*
Y026D03*
Y029D03*
Y033D03*
X031Y035D03*
X035D03*
X027Y027D03*
Y022D03*
G54D22*
X04115Y02449D02*
X04215Y0235D01*
X0426*
X044Y029D02*
Y0314D01*
Y028D02*
Y029D01*
X045*
X0434Y032D02*
X044Y0314D01*
X04118Y028D02*
X044D01*
X03022Y02389D02*
Y02491D01*
X0299Y02524D02*
Y0253D01*
Y02524D02*
X03022Y02491D01*
X03164Y02903D02*
Y03D01*
X0316Y02898D02*
X03164Y02903D01*
X03731Y02658D02*
X0381Y0258D01*
X0356Y02658D02*
X03607D01*
X03731*
X0385Y0268D02*
X03886Y02716D01*
X03906*
X03847Y02643D02*
Y02674D01*
X0385Y02676*
X03906Y02716D02*
X0391Y0272D01*
X0385Y02676D02*
Y0268D01*
X0402Y022D02*
Y02368D01*
X0399Y02402D02*
X04022Y0237D01*
X0356Y0258D02*
X03568Y02571D01*
X0362Y02407D02*
Y02524D01*
X0361Y02398D02*
X03611D01*
X03568Y02571D02*
X03573D01*
X0362Y02524*
X03611Y02398D02*
X0362Y02407D01*
X0361Y02398D02*
X03676D01*
X0366Y03278D02*
X03879D01*
X02764Y03279D02*
X03659D01*
X0408Y0265D02*
X0426D01*
X0399Y02555D02*
X04Y02565D01*
X0399Y02402D02*
Y02555D01*
X04Y02565D02*
Y0257D01*
X0408Y0265*
X0426D02*
X0431Y026D01*
X045*
X04334Y02339D02*
Y0235D01*
Y02339D02*
X0437Y02303D01*
X04396*
X044Y023*
X04426Y02423D02*
X045Y0235D01*
X04297Y02423D02*
X04426D01*
X045Y022D02*
Y0235D01*
X0406Y02449D02*
X04115D01*
X0411Y02455D02*
X04115Y02449D01*
X0411Y02455D02*
Y0257D01*
Y0312D02*
Y032D01*
X0342Y03149D02*
X03604D01*
X0299Y0299D02*
X02993Y02993D01*
Y03023D02*
X03028Y03058D01*
X02993Y02993D02*
Y03023D01*
X0295Y0284D02*
X0305D01*
X0287Y02919D02*
X0295Y0284D01*
X03028Y03058D02*
X03087Y03D01*
X02995Y03092D02*
X03028Y03058D01*
X03289Y0262D02*
X0329Y0262D01*
X0336Y02621D02*
X03397Y02658D01*
X03291Y02621D02*
X0336D01*
X0329Y0262D02*
X03291Y02621D01*
X03199Y0262D02*
X03199Y0262D01*
X03289*
X0329Y0309D02*
X03359D01*
X0328Y0298D02*
Y0308D01*
X0329Y0309*
X0316Y0282D02*
X0316Y0282D01*
X0316Y02699D02*
Y0282D01*
X0316Y0282D02*
X03449D01*
X04098Y022D02*
Y02369D01*
Y022D02*
X04099Y022D01*
X04097Y0237D02*
X04097D01*
X04098Y02369*
X03884Y0258D02*
X04031Y02727D01*
Y02791D02*
X0404Y028D01*
X04031Y02727D02*
Y02791D01*
X03884Y0257D02*
Y0258D01*
X03914Y0292D02*
X04022Y02813D01*
X04031*
X0404Y028D02*
Y02804D01*
X0391Y0292D02*
X03914D01*
X04031Y02813D02*
X0404Y02804D01*
X0442Y0212D02*
X045Y022D01*
X043Y0212D02*
X0442D01*
X03647Y021D02*
X03962D01*
X03644D02*
X03647D01*
X03983Y0212D02*
X043D01*
X03962Y021D02*
X03983Y0212D01*
X04099Y02199D02*
X04299D01*
X04099Y022D02*
X04099Y02199D01*
X04299D02*
X043Y02199D01*
X03884Y02434D02*
Y0257D01*
X03869Y02418D02*
X03884Y02434D01*
X03869Y0228D02*
Y02418D01*
X0381Y0257D02*
Y0258D01*
X0379Y0228D02*
Y02284D01*
X03676Y02398D02*
X0379Y02284D01*
X0361Y02179D02*
Y0232D01*
X03575Y021D02*
X03575Y021D01*
Y02147*
X03607Y02179D02*
X0361D01*
X03572Y021D02*
X03575D01*
X03575Y02147D02*
X03607Y02179D01*
X03564Y0202D02*
X03644Y021D01*
X03465Y0202D02*
X03564D01*
X0341Y0207D02*
X03414D01*
X03465Y0202*
X0341Y02149D02*
Y02309D01*
X03409Y0231D02*
X0341Y02309D01*
X03407Y0231D02*
X03409D01*
X027Y022D02*
X0281Y0231D01*
X02985*
X027Y027D02*
X029D01*
X0317Y0243*
X03172*
X0321Y02509D02*
Y0261D01*
X03199Y0262D02*
X0321Y0261D01*
X03197Y0262D02*
X03199D01*
X03247Y0243D02*
X03327D01*
X03244D02*
X03247D01*
X03367Y02389D02*
X0337D01*
X03327Y0243D02*
X03367Y02389D01*
X0306Y0231D02*
X03124D01*
X03244Y0243*
X03397Y02658D02*
X0356D01*
X03125Y0262D02*
Y02667D01*
X03157Y02699D02*
X0316D01*
X03122Y0262D02*
X03125D01*
X03125Y0262*
Y02667D02*
X03157Y02699D01*
X03449Y0282D02*
X0345Y0282D01*
X03607Y02667D02*
X03684Y02744D01*
Y0281*
X0345Y02899D02*
X0345Y029D01*
X03517*
X03607Y0281D02*
X0361D01*
X03517Y029D02*
X03607Y0281D01*
X0345Y02899D02*
Y03065D01*
X03454Y0307*
X03457*
X03647Y02889D02*
Y03107D01*
X03604Y03149D02*
X03647Y03107D01*
X02978Y03092D02*
X02995D01*
X03087Y03D02*
X0309D01*
X0297Y031D02*
X02978Y03092D01*
X0411Y032D02*
X04265D01*
X03911Y02999D02*
X0392Y03007D01*
Y032*
X0391Y02999D02*
X03911D01*
X0366Y032D02*
X03845D01*
X03655D02*
X0366D01*
X03604Y03149D02*
X03655Y032D01*
X0338Y0307D02*
X03382D01*
X03359Y0309D02*
X0338Y0307D01*
X03255Y03169D02*
X0326D01*
X0297Y03179D02*
X03245D01*
X03255Y03169*
X02877Y03197D02*
Y03199D01*
X02874Y032D02*
X02877D01*
X02896Y03179D02*
X0297D01*
X02877Y03197D02*
X02896Y03179D01*
X02877Y032D02*
X02877Y03199D01*
X028Y03027D02*
X02827Y03D01*
X0283*
X028Y03027D02*
Y032D01*
X02684Y0319D02*
X02694Y032D01*
X0268Y0319D02*
X02684D01*
X02694Y032D02*
X028D01*
X04479Y03279D02*
X045Y033D01*
X04302Y03279D02*
X04479D01*
X043D02*
X04302D01*
X0411Y03278D02*
X04299D01*
X043Y03279*
X03882Y03279D02*
X04109D01*
X03882Y03279D02*
X03882Y03279D01*
X04109D02*
X0411Y03278D01*
X03879D02*
X0388Y03279D01*
X03882*
X0268Y03269D02*
X02754D01*
X02764Y03279*
G54D23*
X044Y028D03*
X0299Y0253D03*
X044Y023D03*
X0411Y0257D03*
Y0312D03*
X035Y0315D03*
X0299Y0299D03*
X0305Y0284D03*
X0329Y0262D03*
X0328Y0298D03*
X0399Y0255D03*
X0391Y0272D03*
G54D24*
X026Y02D03*
X046D03*
Y036D03*
X026D03*
M02*