%FSTAX23Y23*%
%MOIN*%
%SFA1B1*%

%IPPOS*%
%ADD27C,0.005000*%
%LNlm709_pcb-1*%
%LPD*%
G54D27*
X04479Y022D02*
X0452D01*
X045Y02179D02*
Y0222D01*
X04479Y026D02*
X0452D01*
X045Y02579D02*
Y0262D01*
X04479Y029D02*
X0452D01*
X045Y02879D02*
Y0292D01*
X04479Y033D02*
X0452D01*
X045Y03279D02*
Y0332D01*
X03079Y035D02*
X0312D01*
X031Y03479D02*
Y0352D01*
X03479Y035D02*
X0352D01*
X035Y03479D02*
Y0352D01*
X02679Y027D02*
X0272D01*
X027Y02679D02*
Y0272D01*
X02679Y022D02*
X0272D01*
X027Y02179D02*
Y0222D01*
X04386Y028D02*
X04414D01*
X044Y02786D02*
Y02814D01*
X02976Y0253D02*
X03004D01*
X0299Y02516D02*
Y02544D01*
X04386Y023D02*
X04414D01*
X044Y02286D02*
Y02314D01*
X04096Y0257D02*
X04124D01*
X0411Y02556D02*
Y02584D01*
X04096Y0312D02*
X04124D01*
X0411Y03106D02*
Y03134D01*
X03486Y0315D02*
X03514D01*
X035Y03136D02*
Y03164D01*
X02976Y0299D02*
X03004D01*
X0299Y02976D02*
Y03004D01*
X03036Y0284D02*
X03064D01*
X0305Y02826D02*
Y02854D01*
X03276Y0262D02*
X03304D01*
X0329Y02606D02*
Y02634D01*
X03266Y0298D02*
X03294D01*
X0328Y02966D02*
Y02994D01*
X03976Y0255D02*
X04004D01*
X0399Y02536D02*
Y02564D01*
X03896Y0272D02*
X03924D01*
X0391Y02706D02*
Y02734D01*
X0254Y02D02*
X02659D01*
X026Y0194D02*
Y02059D01*
X0454Y02D02*
X04659D01*
X046Y0194D02*
Y02059D01*
X0454Y036D02*
X04659D01*
X046Y0354D02*
Y03659D01*
X0254Y036D02*
X02659D01*
X026Y0354D02*
Y03659D01*
M02*