%FSTAX23Y23*%
%MOIN*%
%SFA1B1*%

%IPPOS*%
%ADD10C,0.007870*%
%ADD25C,0.003940*%
%LNlm709_pcb-1*%
%LPD*%
G54D10*
X04442Y02147D02*
Y02252D01*
Y02147D02*
X04557D01*
Y02252*
X04442D02*
X04557D01*
X04239Y02361D02*
X04354D01*
Y02412*
X04239D02*
X04354D01*
X04239Y02361D02*
Y02412D01*
X04Y02382D02*
Y02437D01*
Y02382D02*
X04119D01*
Y02437*
X04D02*
X04119D01*
X03789Y02581D02*
X03904D01*
Y02632*
X03789D02*
X03904D01*
X03789Y02581D02*
Y02632D01*
X03588Y02822D02*
Y02877D01*
Y02822D02*
X03706D01*
Y02877*
X03588D02*
X03706D01*
X031Y02632D02*
Y02687D01*
Y02632D02*
X03219D01*
Y02687*
X031D02*
X03219D01*
X0355Y02112D02*
Y02167D01*
Y02112D02*
X03669D01*
Y02167*
X0355D02*
X03669D01*
X0315Y02442D02*
Y02497D01*
Y02442D02*
X03269D01*
Y02497*
X0315D02*
X03269D01*
X0331Y02322D02*
Y02377D01*
Y02322D02*
X03429D01*
Y02377*
X0331D02*
X03429D01*
X04442Y02547D02*
Y02652D01*
Y02547D02*
X04557D01*
Y02652*
X04442D02*
X04557D01*
X04442Y02847D02*
Y02952D01*
Y02847D02*
X04557D01*
Y02952*
X04442D02*
X04557D01*
X04442Y03247D02*
Y03352D01*
Y03247D02*
X04557D01*
Y03352*
X04442D02*
X04557D01*
X04243Y03212D02*
Y03267D01*
Y03212D02*
X04361D01*
Y03267*
X04243D02*
X04361D01*
X03823Y03212D02*
Y03267D01*
Y03212D02*
X03941D01*
Y03267*
X03823D02*
X03941D01*
X03042Y03447D02*
Y03552D01*
Y03447D02*
X03157D01*
Y03552*
X03042D02*
X03157D01*
X03442Y03447D02*
Y03552D01*
Y03447D02*
X03557D01*
Y03552*
X03442D02*
X03557D01*
X0336Y03082D02*
Y03137D01*
Y03082D02*
X03479D01*
Y03137*
X0336D02*
X03479D01*
X02778Y03212D02*
Y03267D01*
Y03212D02*
X02896D01*
Y03267*
X02778D02*
X02896D01*
X0277Y02932D02*
Y02987D01*
Y02932D02*
X02889D01*
Y02987*
X0277D02*
X02889D01*
X03068Y03012D02*
Y03067D01*
Y03012D02*
X03186D01*
Y03067*
X03068D02*
X03186D01*
X02642Y02647D02*
Y02752D01*
Y02647D02*
X02757D01*
Y02752*
X02642D02*
X02757D01*
X02642Y02147D02*
Y02252D01*
Y02147D02*
X02757D01*
Y02252*
X02642D02*
X02757D01*
X02963Y02322D02*
Y02377D01*
Y02322D02*
X03081D01*
Y02377*
X02963D02*
X03081D01*
G54D25*
X04018Y02226D02*
X04101D01*
X04018Y02173D02*
X04101D01*
X04018D02*
Y02226D01*
X04101Y02173D02*
Y02226D01*
X03476Y02818D02*
Y02901D01*
X03423Y02818D02*
Y02901D01*
X03476*
X03423Y02818D02*
X03476D01*
X03186Y02818D02*
Y029D01*
X03133Y02818D02*
Y029D01*
X03186*
X03133Y02818D02*
X03186D01*
X03586Y02578D02*
Y0266D01*
X03533Y02578D02*
Y0266D01*
X03586*
X03533Y02578D02*
X03586D01*
X03788Y02253D02*
X03871D01*
X03788Y02306D02*
X03871D01*
Y02253D02*
Y02306D01*
X03788Y02253D02*
Y02306D01*
X03636Y02318D02*
Y024D01*
X03583Y02318D02*
Y024D01*
X03636*
X03583Y02318D02*
X03636D01*
X04038Y02826D02*
X0412D01*
X04038Y02773D02*
X0412D01*
X04038D02*
Y02826D01*
X0412Y02773D02*
Y02826D01*
X04136Y03198D02*
Y0328D01*
X04083Y03198D02*
Y0328D01*
X04136*
X04083Y03198D02*
X04136D01*
X03686D02*
Y0328D01*
X03633Y03198D02*
Y0328D01*
X03686*
X03633Y03198D02*
X03686D01*
X03286Y03088D02*
Y03171D01*
X03233Y03088D02*
Y03171D01*
X03286*
X03233Y03088D02*
X03286D01*
X02706Y03188D02*
Y03271D01*
X02653Y03188D02*
Y03271D01*
X02706*
X02653Y03188D02*
X02706D01*
X02996Y03098D02*
Y03181D01*
X02943Y03098D02*
Y03181D01*
X02996*
X02943Y03098D02*
X02996D01*
X04326Y02118D02*
Y02201D01*
X04273Y02118D02*
Y02201D01*
X04326*
X04273Y02118D02*
X04326D01*
X03936Y02918D02*
Y03001D01*
X03883Y02918D02*
Y03001D01*
X03936*
X03883Y02918D02*
X03936D01*
X03383Y02068D02*
Y02151D01*
X03436Y02068D02*
Y02151D01*
X03383Y02068D02*
X03436D01*
X03383Y02151D02*
X03436D01*
M02*