%FSTAX23Y23*%
%MOIN*%
%SFA1B1*%

%IPPOS*%
%AMD12*
4,1,8,-0.011500,0.017500,-0.011500,-0.017500,0.000000,-0.029000,0.000000,-0.029000,0.011500,-0.017500,0.011500,0.017500,0.000000,0.029000,0.000000,0.029000,-0.011500,0.017500,0.0*
1,1,0.023020,0.000000,0.017500*
1,1,0.023020,0.000000,-0.017500*
1,1,0.023020,0.000000,-0.017500*
1,1,0.023020,0.000000,0.017500*
%
G04~CAMADD=12~8~0.0~0.0~580.4~230.3~115.1~0.0~15~0.0~0.0~0.0~0.0~0~0.0~0.0~0.0~0.0~0~0.0~0.0~0.0~90.0~230.0~579.0*
%ADD12D12*%
%ADD13R,0.023030X0.058040*%
%ADD14R,0.023620X0.031500*%
%ADD15R,0.047240X0.057090*%
%ADD16R,0.057090X0.047240*%
%ADD19R,0.061810X0.061810*%
%LNlm709_pcb-1*%
%LPD*%
G54D12*
X04297Y02423D03*
X04334Y0235D03*
X03847Y02643D03*
X03884Y0257D03*
G54D13*
X0426Y0235D03*
X0381Y0257D03*
G54D14*
X0406Y02449D03*
X04097Y0237D03*
X04022D03*
X03647Y02889D03*
X03684Y0281D03*
X0361D03*
X0316Y02699D03*
X03197Y0262D03*
X03122D03*
X0361Y02179D03*
X03647Y021D03*
X03572D03*
X0321Y02509D03*
X03247Y0243D03*
X03172D03*
X0337Y02389D03*
X03407Y0231D03*
X03332D03*
X04302Y03279D03*
X0434Y032D03*
X04265D03*
X03882Y03279D03*
X0392Y032D03*
X03845D03*
X0342Y03149D03*
X03457Y0307D03*
X03382D03*
X02837Y03279D03*
X02874Y032D03*
X028D03*
X0283Y03D03*
X02867Y0292D03*
X02792D03*
X03127Y03079D03*
X03164Y03D03*
X0309D03*
X03022Y02389D03*
X0306Y0231D03*
X02985D03*
G54D15*
X0402Y022D03*
X04099D03*
X03869Y0228D03*
X0379D03*
X0404Y028D03*
X04118D03*
G54D16*
X0345Y02899D03*
Y0282D03*
X0316Y02898D03*
Y0282D03*
X0356Y02658D03*
Y0258D03*
X0361Y02398D03*
Y0232D03*
X0411Y03278D03*
Y032D03*
X0366Y03278D03*
Y032D03*
X0326Y03169D03*
Y0309D03*
X0268Y03269D03*
Y0319D03*
X0297Y03179D03*
Y031D03*
X043Y02199D03*
Y0212D03*
X0391Y02999D03*
Y0292D03*
X0341Y0207D03*
Y02149D03*
G54D19*
X045Y022D03*
Y026D03*
Y029D03*
Y033D03*
X031Y035D03*
X035D03*
X027Y027D03*
Y022D03*
M02*